G04 ================== begin FILE IDENTIFICATION RECORD ==================*
G04 Layout Name:  C:/Jeonghyun/Lab/AD9910_Enclosure2/ProfilePCB/allegro/ad9910db.brd*
G04 Film Name:    BOTTOM*
G04 File Format:  Gerber RS274X*
G04 File Origin:  Cadence Allegro 23.1-S003*
G04 Origin Date:  Fri Mar 29 18:47:30 2024*
G04 *
G04 Layer:  ETCH/BOTTOM*
G04 Layer:  PIN/BOTTOM*
G04 Layer:  VIA CLASS/BOTTOM*
G04 *
G04 Offset:    (0.0000 0.0000)*
G04 Mirror:    No*
G04 Mode:      Positive*
G04 Rotation:  0*
G04 FullContactRelief:  No*
G04 UndefLineWidth:     0.0000*
G04 ================== end FILE IDENTIFICATION RECORD ====================*
%FSLAX25Y25*MOMM*%
%IR0*IPPOS*OFA0.00000B0.00000*MIA0B0*SFA1.00000B1.00000*%
%ADD13C,.5*%
%ADD12C,1.5*%
%ADD11C,2.032*%
%ADD10R,1.905X1.905*%
%ADD14C,.127*%
%ADD15C,.2939*%
%ADD16C,1.7544*%
%ADD17C,2.2864*%
G75*
%LPD*%
G75*
G36*
G01X10Y2539990D02*
X13999990D01*
Y10D01*
X10D01*
Y2539990D01*
G37*
%LPC*%
G75*
G36*
G01X13300940Y869870D02*
G02X13271500Y864780I-29446J82629D01*
G02X13359220Y952500I0J87720D01*
G02X13354130Y923060I-87719J6D01*
G01X13353060Y920040D01*
X13423050Y850050D01*
G02X13433220Y825500I-24546J-24550D01*
G01Y396100D01*
G02X13423050Y371550I-34716J0D01*
G01X13366630Y315130D01*
G02X13342080Y304960I-24550J24546D01*
G01X12990560D01*
X12741110Y55510D01*
G02X12716560Y45340I-24550J24546D01*
G01X10772660D01*
G02X10748110Y55510I0J34716D01*
G01X10139840Y663780D01*
X8974620D01*
G03X8967810Y646090I3J-10157D01*
G02X8996720Y581000I-58819J-65090D01*
G02X8821280I-87720J0D01*
G02X8850190Y646090I87729J0D01*
G03X8843380Y663780I-6813J7533D01*
G01X8720620D01*
G03X8713810Y646090I3J-10157D01*
G02X8742720Y581000I-58819J-65090D01*
G02X8567280I-87720J0D01*
G02X8596190Y646090I87729J0D01*
G03X8589380Y663780I-6813J7533D01*
G01X8532880D01*
X8482560Y613460D01*
X8483630Y610440D01*
G02X8488720Y581000I-82629J-29446D01*
G02X8313280I-87720J0D01*
G02X8342190Y646090I87729J0D01*
G03X8335380Y663780I-6813J7533D01*
G01X8278880D01*
X8228560Y613460D01*
X8229630Y610440D01*
G02X8234720Y581000I-82629J-29446D01*
G02X8147000Y668720I-87720J0D01*
G02X8176440Y663630I-6J-87719D01*
G01X8179460Y662560D01*
X8239950Y723050D01*
G02X8264500Y733220I24550J-24546D01*
G01X8431120D01*
X8450120Y752220D01*
X8443930Y758410D01*
X8440640Y756750D01*
G02X8401000Y747280I-39645J78249D01*
G02Y922720I0J87720D01*
G02X8430440Y917630I-6J-87719D01*
G01X8433460Y916560D01*
X8529810Y1012910D01*
G02X8554360Y1023080I24550J-24546D01*
G01X9997140D01*
G02X10021690Y1012910I0J-34716D01*
G01X10825940Y208660D01*
X12329380D01*
X12396930Y276200D01*
G03X12388990Y293520I-7181J7188D01*
G02X12382500Y293280I-6484J87480D01*
G02X12470220Y381000I0J87720D01*
G02X12469980Y374510I-87720J-6D01*
G03X12487300Y366570I10132J-759D01*
G01X12982780Y862060D01*
Y871940D01*
G02X12929780Y952500I34726J80560D01*
G02X13105220I87720J0D01*
G02X13052220Y871940I-87726J0D01*
G01Y847680D01*
G02X13042050Y823130I-34716J0D01*
G01X13021800Y802890D01*
G03X13027790Y785610I7183J-7188D01*
G02X13104610Y708790I-10290J-87110D01*
G03X13121890Y702800I10092J1193D01*
G01X13142130Y723050D01*
G02X13166680Y733220I24550J-24546D01*
G01X13190940D01*
G02X13271500Y786220I80560J-34726D01*
G02X13345100Y746230I0J-87724D01*
G03X13363780Y751750I8523J5526D01*
G01Y811120D01*
X13303960Y870940D01*
X13300940Y869870D01*
G37*
G36*
G01X3773700Y977050D02*
G02X3798250Y987220I24550J-24546D01*
G01X7048500D01*
G02X7073050Y977050I0J-34716D01*
G01X7570880Y479220D01*
X9095380D01*
X9109280Y493120D01*
Y556710D01*
X9108930Y557620D01*
G02X9106280Y571500I35068J13888D01*
G02X9181720I37720J0D01*
G02X9179070Y557620I-37718J8D01*
G01X9178720Y556710D01*
Y478740D01*
G02X9168550Y454190I-34716J0D01*
G01X9147410Y433060D01*
G03X9154600Y415720I7186J-7181D01*
G01X9256620D01*
X9299780Y458880D01*
Y556710D01*
X9299430Y557620D01*
G02X9296780Y571500I35068J13888D01*
G02X9372220I37720J0D01*
G02X9369570Y557620I-37718J8D01*
G01X9369220Y556710D01*
Y444500D01*
G02X9359050Y419950I-34716J0D01*
G01X9308630Y369540D01*
G03X9315820Y352200I7186J-7181D01*
G01X9383600D01*
X9490280Y458880D01*
Y556710D01*
X9489930Y557620D01*
G02X9487280Y571500I35068J13888D01*
G02X9562720I37720J0D01*
G02X9560070Y557620I-37718J8D01*
G01X9559720Y556710D01*
Y444500D01*
G02X9549550Y419950I-34716J0D01*
G01X9422530Y292930D01*
G02X9397980Y282760I-24550J24546D01*
G01X3429020D01*
G02X3404470Y292930I0J34716D01*
G01X3296450Y400950D01*
G02X3286280Y425500I24546J24550D01*
G01Y500440D01*
G02X3267280Y511660I34750J80543D01*
G03X3250900Y503620I-6220J-8033D01*
G01Y354190D01*
X3379870Y225220D01*
X9447120D01*
X9680780Y458880D01*
Y556710D01*
X9680430Y557620D01*
G02X9677780Y571500I35068J13888D01*
G02X9753220I37720J0D01*
G02X9750570Y557620I-37718J8D01*
G01X9750220Y556710D01*
Y444500D01*
G02X9740050Y419950I-34716J0D01*
G01X9486050Y165950D01*
G02X9461500Y155780I-24550J24546D01*
G01X3365490D01*
G02X3340940Y165950I0J34716D01*
G01X3191630Y315260D01*
G02X3181460Y339810I24546J24550D01*
G01Y671440D01*
X3099460Y753440D01*
X3096440Y752370D01*
G02X3067000Y747280I-29446J82629D01*
G02X3154720Y835000I0J87720D01*
G02X3149630Y805560I-87719J6D01*
G01X3148560Y802540D01*
X3240730Y710370D01*
G02X3250900Y685820I-24546J-24550D01*
G01Y658380D01*
G03X3267280Y650340I10160J-7D01*
G02X3321000Y668720I53728J-69337D01*
G02X3408720Y581000I0J-87720D01*
G02X3355720Y500440I-87726J0D01*
G01Y439880D01*
X3443400Y352200D01*
X7448180D01*
G03X7455370Y369540I4J10159D01*
G01X7431150Y393760D01*
X3539920D01*
G02X3515370Y403920I-11J34714D01*
G01X3445630Y473660D01*
G02X3435460Y498210I24546J24550D01*
G01Y671440D01*
X3353460Y753440D01*
X3350440Y752370D01*
G02X3321000Y747280I-29446J82629D01*
G02X3408720Y835000I0J87720D01*
G02X3403630Y805560I-87719J6D01*
G01X3402560Y802540D01*
X3494730Y710370D01*
G02X3504900Y685820I-24546J-24550D01*
G01Y658380D01*
G03X3521280Y650340I10160J-7D01*
G02X3575000Y668720I53728J-69337D01*
G02X3604440Y663630I-6J-87719D01*
G01X3607460Y662560D01*
X3648280Y703380D01*
Y760200D01*
G03X3631570Y767960I-10159J-4D01*
G02X3575000Y747280I-56570J67033D01*
G02Y922720I0J87720D01*
G02X3653010Y875110I0J-87716D01*
G03X3669230Y872570I9037J4647D01*
G01X3773700Y977050D01*
G37*
G36*
G01X102450Y2310550D02*
X292950Y2501050D01*
G02X317500Y2511220I24550J-24546D01*
G01X5715000D01*
G02X5739550Y2501050I0J-34716D01*
G01X6046880Y2193720D01*
X8278870D01*
G02X8303420Y2183550I0J-34716D01*
G01X8552550Y1934420D01*
G02X8562720Y1909870I-24546J-24550D01*
G01Y1831970D01*
X8623250D01*
G02X8635970Y1819250I0J-12720D01*
G01Y1628750D01*
G02X8623250Y1616030I-12720J0D01*
G01X8432750D01*
G02X8420030Y1628750I0J12720D01*
G01Y1819250D01*
G02X8432750Y1831970I12720J0D01*
G01X8493280D01*
Y1895490D01*
X8405650Y1983130D01*
G03X8388300Y1976110I-7189J-7182D01*
G02X8274000Y1863680I-114300J1886D01*
G02X8159680Y1978000I0J114320D01*
G02X8272110Y2092300I114316J0D01*
G03X8279130Y2109650I-162J10161D01*
G01X8264490Y2124280D01*
X6032500D01*
G02X6007950Y2134450I0J34716D01*
G01X5700620Y2441780D01*
X331880D01*
X161720Y2271620D01*
Y331880D01*
X331880Y161720D01*
X1074620D01*
X1461440Y548540D01*
X1460370Y551560D01*
G02X1455280Y581000I82629J29446D01*
G02X1543000Y493280I87720J0D01*
G02X1513560Y498370I6J87719D01*
G01X1510540Y499440D01*
X1113550Y102450D01*
G02X1089000Y92280I-24550J24546D01*
G01X317500D01*
G02X292950Y102450I0J34716D01*
G01X102450Y292950D01*
G02X92280Y317500I24546J24550D01*
G01Y2286000D01*
G02X102450Y2310550I34716J0D01*
G37*
G36*
G01X10971120Y2378280D02*
X6237790D01*
X6236880Y2377930D01*
G02X6223000Y2375280I-13888J35068D01*
G02Y2450720I0J37720D01*
G02X6236880Y2448070I-8J-37718D01*
G01X6237790Y2447720D01*
X10985500D01*
G02X11010050Y2437550I0J-34716D01*
G01X11207040Y2240560D01*
X11210060Y2241630D01*
G02X11239500Y2246720I29446J-82629D01*
G02X11151780Y2159000I0J-87720D01*
G02X11156870Y2188440I87719J-6D01*
G01X11157940Y2191460D01*
X10971120Y2378280D01*
G37*
G36*
G01X356450Y2056550D02*
X546950Y2247050D01*
G02X571500Y2257220I24550J-24546D01*
G01X5715000D01*
G02X5739550Y2247050I0J-34716D01*
G01X6012550Y1974050D01*
G02X6022720Y1949500I-24546J-24550D01*
G01Y1831970D01*
X6083250D01*
G02X6095970Y1819250I0J-12720D01*
G01Y1628750D01*
G02X6083250Y1616030I-12720J0D01*
G01X5892750D01*
G02X5880030Y1628750I0J12720D01*
G01Y1819250D01*
G02X5892750Y1831970I12720J0D01*
G01X5953280D01*
Y1935120D01*
X5700620Y2187780D01*
X585880D01*
X415720Y2017620D01*
Y649380D01*
X585880Y479220D01*
X1138120D01*
X1207440Y548540D01*
X1206370Y551560D01*
G02X1201280Y581000I82629J29446D01*
G02X1289000Y493280I87720J0D01*
G02X1259560Y498370I6J87719D01*
G01X1256540Y499440D01*
X1177050Y419950D01*
G02X1152500Y409780I-24550J24546D01*
G01X571500D01*
G02X546950Y419950I0J34716D01*
G01X356450Y610450D01*
G02X346280Y635000I24546J24550D01*
G01Y2032000D01*
G02X356450Y2056550I34716J0D01*
G37*
G36*
G01X10272620Y2124280D02*
X8904790D01*
X8903880Y2123930D01*
G02X8890000Y2121280I-13888J35068D01*
G02Y2196720I0J37720D01*
G02X8903880Y2194070I-8J-37718D01*
G01X8904790Y2193720D01*
X10287000D01*
G02X10311550Y2183550I0J-34716D01*
G01X10428090Y2067000D01*
X10428980Y2066620D01*
G02X10451720Y2032000I-14983J-34620D01*
G02X10414000Y1994280I-37720J0D01*
G02X10379380Y2017020I0J37723D01*
G01X10379000Y2017910D01*
X10272620Y2124280D01*
G37*
G36*
G01X9690030Y1758720D02*
Y1819250D01*
G02X9702750Y1831970I12720J0D01*
G01X9893250D01*
G02X9905970Y1819250I0J-12720D01*
G01Y1628750D01*
G02X9893250Y1616030I-12720J0D01*
G01X9702750D01*
G02X9690030Y1628750I0J12720D01*
G01Y1689280D01*
X9421880D01*
X8787550Y1054950D01*
G02X8763000Y1044780I-24550J24546D01*
G01X1801880D01*
X1624510Y867420D01*
G02X1630720Y835000I-81521J-32420D01*
G02X1543000Y922720I-87720J0D01*
G02X1572440Y917630I-6J-87719D01*
G01X1575460Y916560D01*
X1762950Y1104050D01*
G02X1787500Y1114220I24550J-24546D01*
G01X8748620D01*
X9382950Y1748550D01*
G02X9407500Y1758720I24550J-24546D01*
G01X9690030D01*
G37*
G36*
G01X7150030D02*
Y1819250D01*
G02X7162750Y1831970I12720J0D01*
G01X7353250D01*
G02X7365970Y1819250I0J-12720D01*
G01Y1628750D01*
G02X7353250Y1616030I-12720J0D01*
G01X7162750D01*
G02X7150030Y1628750I0J12720D01*
G01Y1689280D01*
X6818380D01*
X6311050Y1181950D01*
G02X6286500Y1171780I-24550J24546D01*
G01X1674880D01*
X1370510Y867420D01*
G02X1376720Y835000I-81521J-32420D01*
G02X1289000Y922720I-87720J0D01*
G02X1318440Y917630I-6J-87719D01*
G01X1321460Y916560D01*
X1635950Y1231050D01*
G02X1660500Y1241220I24550J-24546D01*
G01X6272120D01*
X6779450Y1748550D01*
G02X6804000Y1758720I24550J-24546D01*
G01X7150030D01*
G37*
G36*
G01X4610030D02*
Y1819250D01*
G02X4622750Y1831970I12720J0D01*
G01X4813250D01*
G02X4825970Y1819250I0J-12720D01*
G01Y1628750D01*
G02X4813250Y1616030I-12720J0D01*
G01X4622750D01*
G02X4610030Y1628750I0J12720D01*
G01Y1689280D01*
X4214880D01*
X3834550Y1308950D01*
G02X3810000Y1298780I-24550J24546D01*
G01X1547880D01*
X1116560Y867460D01*
X1117630Y864440D01*
G02X1122720Y835000I-82629J-29446D01*
G02X1035000Y922720I-87720J0D01*
G02X1064440Y917630I-6J-87719D01*
G01X1067460Y916560D01*
X1508950Y1358050D01*
G02X1533500Y1368220I24550J-24546D01*
G01X1839740D01*
G03X1846620Y1385850I-2J10158D01*
G02X1809680Y1470000I77378J84150D01*
G02X2038320I114320J0D01*
G02X2001380Y1385850I-114318J0D01*
G03X2008260Y1368220I6882J-7472D01*
G01X2347740D01*
G03X2354620Y1385850I-2J10158D01*
G02X2317680Y1470000I77378J84150D01*
G02X2546320I114320J0D01*
G02X2509380Y1385850I-114318J0D01*
G03X2516260Y1368220I6882J-7472D01*
G01X3109740D01*
G03X3116620Y1385850I-2J10158D01*
G02X3079680Y1470000I77378J84150D01*
G02X3308320I114320J0D01*
G02X3271380Y1385850I-114318J0D01*
G03X3278260Y1368220I6882J-7472D01*
G01X3617740D01*
G03X3624620Y1385850I-2J10158D01*
G02X3587680Y1470000I77378J84150D01*
G02X3816320I114320J0D01*
G02X3779380Y1385850I-114318J0D01*
G03X3786260Y1368220I6882J-7472D01*
G01X3795620D01*
X4175950Y1748550D01*
G02X4200500Y1758720I24550J-24546D01*
G01X4610030D01*
G37*
G36*
G01X2070030D02*
Y1819250D01*
G02X2082750Y1831970I12720J0D01*
G01X2273250D01*
G02X2285970Y1819250I0J-12720D01*
G01Y1628750D01*
G02X2273250Y1616030I-12720J0D01*
G01X2082750D01*
G02X2070030Y1628750I0J12720D01*
G01Y1689280D01*
X1684380D01*
X862560Y867460D01*
X863630Y864440D01*
G02X868720Y835000I-82629J-29446D01*
G02X781000Y922720I-87720J0D01*
G02X810440Y917630I-6J-87719D01*
G01X813460Y916560D01*
X1645450Y1748550D01*
G02X1670000Y1758720I24550J-24546D01*
G01X2070030D01*
G37*
G36*
G01X800030Y1628750D02*
Y1819250D01*
G02X812750Y1831970I12720J0D01*
G01X1003250D01*
G02X1015970Y1819250I0J-12720D01*
G01Y1628750D01*
G02X1003250Y1616030I-12720J0D01*
G01X942720D01*
Y1416000D01*
G02X932550Y1391450I-34716J0D01*
G01X606220Y1065120D01*
Y804880D01*
X748580Y662510D01*
G02X781000Y668720I32420J-81521D01*
G02X693280Y581000I0J-87720D01*
G02X698370Y610440I87719J-6D01*
G01X699440Y613460D01*
X546950Y765950D01*
G02X536780Y790500I24546J24550D01*
G01Y1079500D01*
G02X546950Y1104050I34716J0D01*
G01X873280Y1430380D01*
Y1616030D01*
X812750D01*
G02X800030Y1628750I0J12720D01*
G37*
G36*
G01X10833950Y1167550D02*
G02X10858500Y1177720I24550J-24546D01*
G01X11158940D01*
G02X11239500Y1230720I80560J-34726D01*
G02Y1055280I0J-87720D01*
G02X11158940Y1108280I0J87726D01*
G01X10872880D01*
X10766500Y1001910D01*
X10766120Y1001020D01*
G02X10731500Y978280I-34620J14983D01*
G02X10693780Y1016000I0J37720D01*
G02X10716520Y1050620I37723J0D01*
G01X10717410Y1051000D01*
X10833950Y1167550D01*
G37*
G36*
G01X10745380Y924070D02*
X10746290Y923720D01*
X11158940D01*
G02X11239500Y976720I80560J-34726D01*
G02Y801280I0J-87720D01*
G02X11158940Y854280I0J87726D01*
G01X10746290D01*
X10745380Y853930D01*
G02X10731500Y851280I-13888J35068D01*
G02Y926720I0J37720D01*
G02X10745380Y924070I-8J-37718D01*
G37*
G36*
G01X10995720Y727280D02*
X10746290D01*
X10745380Y726930D01*
G02X10731500Y724280I-13888J35068D01*
G02Y799720I0J37720D01*
G02X10745380Y797070I-8J-37718D01*
G01X10746290Y796720D01*
X11010100D01*
G02X11034650Y786550I0J-34716D01*
G01X11151480Y669720D01*
X11158880D01*
X11160250Y672620D01*
G02X11239500Y722720I79250J-37630D01*
G02Y547280I0J-87720D01*
G02X11158940Y600280I0J87726D01*
G01X11137100D01*
G02X11112550Y610450I0J34716D01*
G01X10995720Y727280D01*
G37*
G36*
G01X10941730Y600280D02*
X10746290D01*
X10745380Y599930D01*
G02X10731500Y597280I-13888J35068D01*
G02Y672720I0J37720D01*
G02X10745380Y670070I-8J-37718D01*
G01X10746290Y669720D01*
X10956110D01*
G02X10980660Y659550I0J-34716D01*
G01X11010050Y630160D01*
G02X11020220Y605610I-24546J-24550D01*
G01Y522380D01*
X11126880Y415720D01*
X11158940D01*
G02X11239500Y468720I80560J-34726D01*
G02Y293280I0J-87720D01*
G02X11158940Y346280I0J87726D01*
G01X11112500D01*
G02X11087950Y356450I0J34716D01*
G01X10960950Y483450D01*
G02X10950780Y508000I24546J24550D01*
G01Y591230D01*
X10941730Y600280D01*
G37*
G36*
G01X3032280Y298500D02*
Y500440D01*
G02X2979280Y581000I34726J80560D01*
G02X3154720I87720J0D01*
G02X3101720Y500440I-87726J0D01*
G01Y312880D01*
X3316380Y98220D01*
X9510620D01*
X9871280Y458880D01*
Y556710D01*
X9870930Y557620D01*
G02X9868280Y571500I35068J13888D01*
G02X9943720I37720J0D01*
G02X9941070Y557620I-37718J8D01*
G01X9940720Y556710D01*
Y444500D01*
G02X9930550Y419950I-34716J0D01*
G01X9549550Y38950D01*
G02X9525000Y28780I-24550J24546D01*
G01X3302000D01*
G02X3277450Y38950I0J34716D01*
G01X3042450Y273950D01*
G02X3032280Y298500I24546J24550D01*
G37*
G36*
G01X3340030Y1628750D02*
Y1819250D01*
G02X3352750Y1831970I12720J0D01*
G01X3543250D01*
G02X3555970Y1819250I0J-12720D01*
G01Y1628750D01*
G02X3543250Y1616030I-12720J0D01*
G01X3352750D01*
G02X3340030Y1628750I0J12720D01*
G37*
G36*
G01X6236880Y2250930D02*
G02X6223000Y2248280I-13888J35068D01*
G02Y2323720I0J37720D01*
G02X6236880Y2321070I-8J-37718D01*
G01X6237790Y2320720D01*
X10858500D01*
G02X10883050Y2310550I0J-34716D01*
G01X11207040Y1986560D01*
X11210060Y1987630D01*
G02X11239500Y1992720I29446J-82629D01*
G02X11327220Y1905000I0J-87720D01*
G02X11287230Y1831400I-87724J0D01*
G03X11292750Y1812720I5526J-8523D01*
G01X11440250D01*
G03X11445770Y1831400I-6J10157D01*
G02X11405780Y1905000I47734J73600D01*
G02X11581220I87720J0D01*
G02X11541230Y1831400I-87724J0D01*
G03X11546750Y1812720I5526J-8523D01*
G01X12075250D01*
G03X12080770Y1831400I-6J10157D01*
G02X12040780Y1905000I47734J73600D01*
G02X12216220I87720J0D01*
G02X12176230Y1831400I-87724J0D01*
G03X12181750Y1812720I5526J-8523D01*
G01X12329250D01*
G03X12334770Y1831400I-6J10157D01*
G02X12294780Y1905000I47734J73600D01*
G02X12470220I87720J0D01*
G02X12430230Y1831400I-87724J0D01*
G03X12435750Y1812720I5526J-8523D01*
G01X12685620D01*
X12935940Y2063040D01*
X12934870Y2066060D01*
G02X12929780Y2095500I82629J29446D01*
G02X13017500Y2007780I87720J0D01*
G02X12988060Y2012870I6J87719D01*
G01X12985040Y2013940D01*
X12724550Y1753450D01*
G02X12700000Y1743280I-24550J24546D01*
G01X12435750D01*
G03X12430230Y1724600I6J-10157D01*
G02Y1577400I-47734J-73600D01*
G03X12435750Y1558720I5526J-8523D01*
G01X12685620D01*
X12802450Y1675550D01*
G02X12827000Y1685720I24550J-24546D01*
G01X13384120D01*
X13490780Y1792380D01*
Y1954120D01*
X13384120Y2060780D01*
X13352060D01*
G02X13271500Y2007780I-80560J34726D01*
G02Y2183220I0J87720D01*
G02X13352060Y2130220I0J-87726D01*
G01X13398500D01*
G02X13423050Y2120050I0J-34716D01*
G01X13550050Y1993050D01*
G02X13560220Y1968500I-24546J-24550D01*
G01Y1778000D01*
G02X13550050Y1753450I-34716J0D01*
G01X13423050Y1626450D01*
G02X13398500Y1616280I-24550J24546D01*
G01X12841380D01*
X12724550Y1499450D01*
G02X12700000Y1489280I-24550J24546D01*
G01X12435750D01*
G03X12430230Y1470600I6J-10157D01*
G02X12470220Y1397000I-47734J-73600D01*
G02X12294780I-87720J0D01*
G02X12334770Y1470600I87724J0D01*
G03X12329250Y1489280I-5526J8523D01*
G01X12181750D01*
G03X12176230Y1470600I6J-10157D01*
G02X12216220Y1397000I-47734J-73600D01*
G02X12040780I-87720J0D01*
G02X12080770Y1470600I87724J0D01*
G03X12075250Y1489280I-5526J8523D01*
G01X11546750D01*
G03X11541230Y1470600I6J-10157D01*
G02X11581220Y1397000I-47734J-73600D01*
G02X11405780I-87720J0D01*
G02X11445770Y1470600I87724J0D01*
G03X11440250Y1489280I-5526J8523D01*
G01X11292750D01*
G03X11287230Y1470600I6J-10157D01*
G02X11327220Y1397000I-47734J-73600D01*
G02X11239500Y1309280I-87720J0D01*
G02X11158940Y1362280I0J87726D01*
G01X10999880D01*
X10766500Y1128910D01*
X10766120Y1128020D01*
G02X10731500Y1105280I-34620J14983D01*
G02X10693780Y1143000I0J37720D01*
G02X10716520Y1177620I37723J0D01*
G01X10717410Y1178000D01*
X10960950Y1421550D01*
G02X10985500Y1431720I24550J-24546D01*
G01X11158940D01*
G02X11191770Y1470600I80558J-34722D01*
G03X11186250Y1489280I-5526J8523D01*
G01X11176000D01*
G02X11151450Y1499450I0J34716D01*
G01X10590410Y2060500D01*
X10589520Y2060880D01*
G02X10566780Y2095500I14983J34620D01*
G02X10604500Y2133220I37720J0D01*
G02X10639120Y2110480I0J-37723D01*
G01X10639500Y2109590D01*
X11190380Y1558720D01*
X11212850D01*
Y1567350D01*
X11209500Y1568570D01*
G02X11151780Y1651000I29999J82430D01*
G02X11191770Y1724600I87724J0D01*
G03X11186250Y1743280I-5526J8523D01*
G01X11112500D01*
G02X11087950Y1753450I0J34716D01*
G01X10717410Y2124000D01*
X10716520Y2124380D01*
G02X10693780Y2159000I14983J34620D01*
G02X10731500Y2196720I37720J0D01*
G02X10766120Y2173980I0J-37723D01*
G01X10766500Y2173090D01*
X11126880Y1812720D01*
X11186250D01*
G03X11191770Y1831400I-6J10157D01*
G02X11151780Y1905000I47734J73600D01*
G02X11156870Y1934440I87719J-6D01*
G01X11157940Y1937460D01*
X10844120Y2251280D01*
X6237790D01*
X6236880Y2250930D01*
G37*
G54D16*
X13017500Y2349500D03*
X13271500D03*
X13017500Y1841500D03*
X13271500D03*
X12382500Y2159000D03*
X12128500D03*
X11493500D03*
X13271500Y1206500D03*
X13017500D03*
X12382500Y889000D03*
X12128500D03*
X12382500Y1143000D03*
X12128500D03*
X11493500Y889000D03*
Y1143000D03*
X8147000Y835000D03*
X7893000D03*
X7639000D03*
X1797000D03*
X2051000D03*
X13271500Y190500D03*
X13017500D03*
X12128500Y381000D03*
X12382500Y635000D03*
X12128500D03*
X11493500Y381000D03*
Y635000D03*
X7893000Y581000D03*
X7639000D03*
X1797000D03*
X2051000D03*
X1035000D03*
X13017500Y1460500D03*
X13271500D03*
G54D17*
X10052000Y1978000D03*
Y1470000D03*
X9544000Y1978000D03*
Y1470000D03*
X8782000Y1978000D03*
Y1470000D03*
X8274000D03*
X7512000Y1978000D03*
X7004000D03*
Y1470000D03*
X7512000D03*
X6242000Y1978000D03*
Y1470000D03*
X5734000Y1978000D03*
Y1470000D03*
X4972000Y1978000D03*
Y1470000D03*
X4464000Y1978000D03*
Y1470000D03*
X3702000Y1978000D03*
X3194000D03*
X2432000D03*
X1924000D03*
X1162000D03*
Y1470000D03*
X654000Y1978000D03*
Y1470000D03*
%LPD*%
G75*
G36*
G01X6688620Y917780D02*
X7034120D01*
X7518850Y433060D01*
G02X7511660Y415720I-7186J-7181D01*
G01X7507380D01*
X7470080Y453020D01*
G03X7445530Y463180I-24539J-24554D01*
G01X3554300D01*
X3504900Y512590D01*
Y519870D01*
X3512050D01*
X3513530Y518420D01*
G03X3575000Y493280I61470J62580D01*
G03X3662720Y581000I0J87720D01*
G03X3657630Y610440I-87719J-6D01*
G01X3656560Y613460D01*
X3707550Y664450D01*
G03X3717720Y689000I-24546J24550D01*
G01Y822870D01*
X3724710Y829870D01*
G02X3741980Y823960I7188J-7182D01*
G03X3829000Y747280I87020J11037D01*
G03X3916720Y835000I0J87720D01*
G03X3887810Y900090I-87729J0D01*
G02X3894620Y917780I6813J7533D01*
G01X4017380D01*
G02X4024190Y900090I-3J-10157D01*
G03X3995280Y835000I58819J-65090D01*
G03X4170720I87720J0D01*
G03X4141810Y900090I-87729J0D01*
G02X4148620Y917780I6813J7533D01*
G01X4271380D01*
G02X4278190Y900090I-3J-10157D01*
G03X4249280Y835000I58819J-65090D01*
G03X4424720I87720J0D01*
G03X4395810Y900090I-87729J0D01*
G02X4402620Y917780I6813J7533D01*
G01X5287380D01*
G02X5294190Y900090I-3J-10157D01*
G03X5265280Y835000I58819J-65090D01*
G03X5440720I87720J0D01*
G03X5411810Y900090I-87729J0D01*
G02X5418620Y917780I6813J7533D01*
G01X5541380D01*
G02X5548190Y900090I-3J-10157D01*
G03X5519280Y835000I58819J-65090D01*
G03X5694720I87720J0D01*
G03X5665810Y900090I-87729J0D01*
G02X5672620Y917780I6813J7533D01*
G01X5795380D01*
G02X5802190Y900090I-3J-10157D01*
G03X5773280Y835000I58819J-65090D01*
G03X5948720I87720J0D01*
G03X5919810Y900090I-87729J0D01*
G02X5926620Y917780I6813J7533D01*
G01X6049380D01*
G02X6056190Y900090I-3J-10157D01*
G03X6027280Y835000I58819J-65090D01*
G03X6202720I87720J0D01*
G03X6173810Y900090I-87729J0D01*
G02X6180620Y917780I6813J7533D01*
G01X6303380D01*
G02X6310190Y900090I-3J-10157D01*
G03X6281280Y835000I58819J-65090D01*
G03X6456720I87720J0D01*
G03X6427810Y900090I-87729J0D01*
G02X6434620Y917780I6813J7533D01*
G01X6557380D01*
G02X6564190Y900090I-3J-10157D01*
G03X6535280Y835000I58819J-65090D01*
G03X6710720I87720J0D01*
G03X6681810Y900090I-87729J0D01*
G02X6688620Y917780I6813J7533D01*
G37*
G36*
G01X8986380Y905100D02*
X9964910D01*
X10119460Y750560D01*
G02X10112270Y733220I-7186J-7181D01*
G01X8549830D01*
G02X8540580Y747590I-5J10159D01*
G03X8543720Y762000I-31576J14428D01*
G01Y822870D01*
X8550710Y829870D01*
G02X8567980Y823960I7188J-7182D01*
G03X8655000Y747280I87020J11037D01*
G03X8742720Y835000I0J87720D01*
G03X8724340Y888720I-87717J-8D01*
G02X8732380Y905100I8033J6220D01*
G01X8831620D01*
G02X8839660Y888720I7J-10160D01*
G03X8821280Y835000I69337J-53728D01*
G03X8996720I87720J0D01*
G03X8978340Y888720I-87717J-8D01*
G02X8986380Y905100I8033J6220D01*
G37*
G36*
G01X11292750Y1743280D02*
X11440250D01*
G02X11445770Y1724600I-6J-10157D01*
G03Y1577400I47734J-73600D01*
G02X11440250Y1558720I-5526J-8523D01*
G01X11292750D01*
G02X11287230Y1577400I6J10157D01*
G03Y1724600I-47734J73600D01*
G02X11292750Y1743280I5526J8523D01*
G37*
G36*
G01X11546750D02*
X12075250D01*
G02X12080770Y1724600I-6J-10157D01*
G03Y1577400I47734J-73600D01*
G02X12075250Y1558720I-5526J-8523D01*
G01X11546750D01*
G02X11541230Y1577400I6J10157D01*
G03Y1724600I-47734J73600D01*
G02X11546750Y1743280I5526J8523D01*
G37*
G36*
G01X12181750D02*
X12329250D01*
G02X12334770Y1724600I-6J-10157D01*
G03Y1577400I47734J-73600D01*
G02X12329250Y1558720I-5526J-8523D01*
G01X12181750D01*
G02X12176230Y1577400I6J10157D01*
G03Y1724600I-47734J73600D01*
G02X12181750Y1743280I5526J8523D01*
G37*
%LPC*%
G75*
G54D16*
X4337000Y581000D03*
X4083000D03*
X3829000D03*
X5353000D03*
X5607000D03*
X5861000D03*
X6115000D03*
X6369000D03*
X6623000D03*
%LPD*%
G75*
G54D10*
X908000Y1724000D03*
X2178000D03*
X3448000D03*
X4718000D03*
X5988000D03*
X7258000D03*
X8528000D03*
X9798000D03*
G54D11*
X654000Y1978000D03*
Y1470000D03*
X1162000Y1978000D03*
Y1470000D03*
X1924000Y1978000D03*
Y1470000D03*
X2432000Y1978000D03*
Y1470000D03*
X3702000Y1978000D03*
X3194000D03*
Y1470000D03*
X3702000D03*
X4464000Y1978000D03*
Y1470000D03*
X4972000Y1978000D03*
Y1470000D03*
X5734000Y1978000D03*
Y1470000D03*
X6242000Y1978000D03*
Y1470000D03*
X7512000Y1978000D03*
X7004000D03*
Y1470000D03*
X7512000D03*
X8274000Y1978000D03*
Y1470000D03*
X8782000Y1978000D03*
Y1470000D03*
X9544000Y1978000D03*
Y1470000D03*
X10052000Y1978000D03*
Y1470000D03*
G54D12*
X1289000Y581000D03*
X1035000D03*
X781000D03*
X1289000Y835000D03*
X1035000D03*
X781000D03*
X2051000Y581000D03*
X1797000D03*
X1543000D03*
X2051000Y835000D03*
X1797000D03*
X1543000D03*
X3575000Y581000D03*
X3321000D03*
X3067000D03*
X3575000Y835000D03*
X3321000D03*
X3067000D03*
X4337000Y581000D03*
X4083000D03*
X3829000D03*
X4337000Y835000D03*
X4083000D03*
X3829000D03*
X5861000Y581000D03*
X5607000D03*
X5353000D03*
X5861000Y835000D03*
X5607000D03*
X5353000D03*
X6623000Y581000D03*
X6369000D03*
X6115000D03*
X6623000Y835000D03*
X6369000D03*
X6115000D03*
X8147000Y581000D03*
X7893000D03*
X7639000D03*
X8147000Y835000D03*
X7893000D03*
X7639000D03*
X8909000Y581000D03*
X8655000D03*
X8401000D03*
X8909000Y835000D03*
X8655000D03*
X8401000D03*
X11239500Y635000D03*
Y381000D03*
Y1397000D03*
Y1143000D03*
Y889000D03*
Y2159000D03*
Y1905000D03*
Y1651000D03*
X11493500Y635000D03*
Y381000D03*
Y1397000D03*
Y1143000D03*
Y889000D03*
Y2159000D03*
Y1905000D03*
Y1651000D03*
X12128500Y635000D03*
X12382500D03*
X12128500Y381000D03*
X12382500D03*
X12128500Y1397000D03*
X12382500D03*
X12128500Y1143000D03*
X12382500D03*
X12128500Y889000D03*
X12382500D03*
X12128500Y2159000D03*
X12382500D03*
X12128500Y1905000D03*
X12382500D03*
X12128500Y1651000D03*
X12382500D03*
X13017500Y444500D03*
X13271500D03*
X13017500Y190500D03*
X13271500D03*
X13017500Y1206500D03*
X13271500D03*
X13017500Y952500D03*
X13271500D03*
X13017500Y698500D03*
X13271500D03*
X13017500Y2095500D03*
X13271500D03*
X13017500Y1841500D03*
X13271500D03*
X13017500Y1460500D03*
X13271500D03*
X13017500Y2349500D03*
X13271500D03*
G54D13*
X6223000Y2413000D03*
Y2286000D03*
X8890000Y2159000D03*
X9144000Y571500D03*
X9334500D03*
X9525000D03*
X9715500D03*
X9906000D03*
X10414000Y2032000D03*
X10731500Y1143000D03*
Y1016000D03*
Y889000D03*
Y762000D03*
Y635000D03*
X10604500Y2095500D03*
X10731500Y2159000D03*
G54D14*
G01X534600Y1470000D02*
X654000D01*
G01X534600Y1978000D02*
X654000D01*
G01Y1350600D02*
Y1470000D01*
G01D02*
Y1589400D01*
G01Y1470000D02*
X773400D01*
G01X654000Y1858600D02*
Y1978000D01*
G01D02*
Y2097400D01*
G01Y1978000D02*
X773400D01*
G01X1162000Y1350600D02*
Y1470000D01*
G01D02*
Y1589400D01*
G01X1042600Y1470000D02*
X1162000D01*
G01D02*
X1281400D01*
G01X1162000Y1858600D02*
Y1978000D01*
G01D02*
Y2097400D01*
G01X1042600Y1978000D02*
X1162000D01*
G01D02*
X1281400D01*
G01X1797000Y488200D02*
Y581000D01*
G01D02*
Y673800D01*
G01X1704200Y581000D02*
X1797000D01*
G01D02*
X1889800D01*
G01X1797000Y742200D02*
Y835000D01*
G01D02*
Y927800D01*
G01X1704200Y835000D02*
X1797000D01*
G01D02*
X1889800D01*
G01X1924000Y1858600D02*
Y1978000D01*
G01D02*
Y2097400D01*
G01X1804600Y1978000D02*
X1924000D01*
G01D02*
X2043400D01*
G01X1924000Y1470000D02*
Y1589400D01*
G01X1804600Y1470000D02*
X1924000D01*
G01D02*
X2043400D01*
G01X2432000Y1858600D02*
Y1978000D01*
G01D02*
Y2097400D01*
G01X2312600Y1978000D02*
X2432000D01*
G01D02*
X2551400D01*
G01X2432000Y1470000D02*
Y1589400D01*
G01X2312600Y1470000D02*
X2432000D01*
G01D02*
X2551400D01*
G01X3582600D02*
X3702000D01*
G01X3194000D02*
Y1589400D01*
G01X3074600Y1470000D02*
X3194000D01*
G01D02*
X3313400D01*
G01X3582600Y1978000D02*
X3702000D01*
G01X3194000Y1858600D02*
Y1978000D01*
G01D02*
Y2097400D01*
G01X3074600Y1978000D02*
X3194000D01*
G01D02*
X3313400D01*
G01X4083000Y488200D02*
Y581000D01*
G01D02*
Y673800D01*
G01X3990200Y581000D02*
X4083000D01*
G01D02*
X4175800D01*
G01X4083000Y742200D02*
Y835000D01*
G01X3990200D02*
X4083000D01*
G01D02*
X4175800D01*
G01X3702000Y1470000D02*
Y1589400D01*
G01Y1470000D02*
X3821400D01*
G01X3702000Y1858600D02*
Y1978000D01*
G01D02*
Y2097400D01*
G01Y1978000D02*
X3821400D01*
G01X4344600Y1470000D02*
X4464000D01*
G01X4344600Y1978000D02*
X4464000D01*
G01Y1350600D02*
Y1470000D01*
G01D02*
Y1589400D01*
G01Y1470000D02*
X4583400D01*
G01X4464000Y1858600D02*
Y1978000D01*
G01D02*
Y2097400D01*
G01Y1978000D02*
X4583400D01*
G01X4972000Y1350600D02*
Y1470000D01*
G01D02*
Y1589400D01*
G01X4852600Y1470000D02*
X4972000D01*
G01D02*
X5091400D01*
G01X4972000Y1858600D02*
Y1978000D01*
G01D02*
Y2097400D01*
G01X4852600Y1978000D02*
X4972000D01*
G01D02*
X5091400D01*
G01X5734000Y1350600D02*
Y1470000D01*
G01D02*
Y1589400D01*
G01X5614600Y1470000D02*
X5734000D01*
G01D02*
X5853400D01*
G01X5734000Y1858600D02*
Y1978000D01*
G01D02*
Y2097400D01*
G01X5614600Y1978000D02*
X5734000D01*
G01D02*
X5853400D01*
G01X6369000Y488200D02*
Y581000D01*
G01D02*
Y673800D01*
G01X6276200Y581000D02*
X6369000D01*
G01D02*
X6461800D01*
G01X6369000Y742200D02*
Y835000D01*
G01X6276200D02*
X6369000D01*
G01D02*
X6461800D01*
G01X6242000Y1858600D02*
Y1978000D01*
G01D02*
Y2097400D01*
G01X6122600Y1978000D02*
X6242000D01*
G01D02*
X6361400D01*
G01X6242000Y1350600D02*
Y1470000D01*
G01D02*
Y1589400D01*
G01X6122600Y1470000D02*
X6242000D01*
G01D02*
X6361400D01*
G01X7392600Y1978000D02*
X7512000D01*
G01X7004000Y1858600D02*
Y1978000D01*
G01D02*
Y2097400D01*
G01X6884600Y1978000D02*
X7004000D01*
G01D02*
X7123400D01*
G01X7004000Y1350600D02*
Y1470000D01*
G01D02*
Y1589400D01*
G01X6884600Y1470000D02*
X7004000D01*
G01D02*
X7123400D01*
G01X7392600D02*
X7512000D01*
G01Y1858600D02*
Y1978000D01*
G01D02*
Y2097400D01*
G01Y1978000D02*
X7631400D01*
G01X7512000Y1350600D02*
Y1470000D01*
G01D02*
Y1589400D01*
G01Y1470000D02*
X7631400D01*
G01X8154600Y1978000D02*
X8274000D01*
G01X8154600Y1470000D02*
X8274000D01*
G01X8655000Y488200D02*
Y581000D01*
G01X8562200D02*
X8655000D01*
G01D02*
X8747800D01*
G01X8655000Y742200D02*
Y835000D01*
G01D02*
X8747800D01*
G01X8782000Y1350600D02*
Y1470000D01*
G01D02*
Y1589400D01*
G01X8662600Y1470000D02*
X8782000D01*
G01D02*
X8901400D01*
G01X8274000Y1858600D02*
Y1978000D01*
G01D02*
Y2097400D01*
G01Y1978000D02*
X8393400D01*
G01X8274000Y1350600D02*
Y1470000D01*
G01D02*
Y1589400D01*
G01Y1470000D02*
X8393400D01*
G01X8782000Y1858600D02*
Y1978000D01*
G01D02*
Y2097400D01*
G01X8662600Y1978000D02*
X8782000D01*
G01D02*
X8901400D01*
G01X9544000Y1350600D02*
Y1470000D01*
G01D02*
Y1589400D01*
G01X9424600Y1470000D02*
X9544000D01*
G01D02*
X9663400D01*
G01X9544000Y1858600D02*
Y1978000D01*
G01D02*
Y2097400D01*
G01X9424600Y1978000D02*
X9544000D01*
G01D02*
X9663400D01*
G01X10052000Y1350600D02*
Y1470000D01*
G01D02*
Y1589400D01*
G01X9932600Y1470000D02*
X10052000D01*
G01D02*
X10171400D01*
G01X10052000Y1858600D02*
Y1978000D01*
G01D02*
Y2097400D01*
G01X9932600Y1978000D02*
X10052000D01*
G01D02*
X10171400D01*
G01X11493500Y542200D02*
Y635000D01*
G01Y288200D02*
Y381000D01*
G01D02*
Y473800D01*
G01X11400700Y381000D02*
X11493500D01*
G01D02*
X11586300D01*
G01X11493500Y635000D02*
Y727800D01*
G01X11400700Y635000D02*
X11493500D01*
G01D02*
X11586300D01*
G01X11493500Y796200D02*
Y889000D01*
G01D02*
Y981800D01*
G01X11400700Y889000D02*
X11493500D01*
G01D02*
X11586300D01*
G01X11493500Y1304200D02*
Y1397000D01*
G01Y1050200D02*
Y1143000D01*
G01D02*
Y1235800D01*
G01X11400700Y1143000D02*
X11493500D01*
G01D02*
X11586300D01*
G01X11400700Y1651000D02*
X11493500D01*
G01D02*
X11586300D01*
G01X11400700Y1397000D02*
X11493500D01*
G01D02*
X11586300D01*
G01X11493500Y1905000D02*
Y1997800D01*
G01X11400700Y1905000D02*
X11493500D01*
G01D02*
X11586300D01*
G01X11493500Y2066200D02*
Y2159000D01*
G01D02*
Y2251800D01*
G01X11400700Y2159000D02*
X11493500D01*
G01D02*
X11586300D01*
G01X12382500Y288200D02*
Y381000D01*
G01D02*
Y473800D01*
G01X12289700Y381000D02*
X12382500D01*
G01D02*
X12475300D01*
G01X12382500Y542200D02*
Y635000D01*
G01D02*
Y727800D01*
G01X12289700Y635000D02*
X12382500D01*
G01D02*
X12475300D01*
G01X12382500Y796200D02*
Y889000D01*
G01D02*
Y981800D01*
G01X12289700Y889000D02*
X12382500D01*
G01D02*
X12475300D01*
G01X12382500Y1304200D02*
Y1397000D01*
G01Y1050200D02*
Y1143000D01*
G01D02*
Y1235800D01*
G01X12289700Y1143000D02*
X12382500D01*
G01D02*
X12475300D01*
G01X12289700Y1651000D02*
X12382500D01*
G01D02*
X12475300D01*
G01X12289700Y1397000D02*
X12382500D01*
G01D02*
X12475300D01*
G01X12382500Y1905000D02*
Y1997800D01*
G01X12289700Y1905000D02*
X12382500D01*
G01D02*
X12475300D01*
G01X12382500Y2066200D02*
Y2159000D01*
G01D02*
Y2251800D01*
G01X12289700Y2159000D02*
X12382500D01*
G01D02*
X12475300D01*
G01X13017500Y1113700D02*
Y1206500D01*
G01D02*
Y1299300D01*
G01X12924700Y1206500D02*
X13017500D01*
G01D02*
X13110300D01*
G01X13271500Y1113700D02*
Y1206500D01*
G01D02*
Y1299300D01*
G01X13178700Y1206500D02*
X13271500D01*
G01D02*
X13364300D01*
G01X13271500Y1748700D02*
Y1841500D01*
G01D02*
Y1934300D01*
G01X13178700Y1841500D02*
X13271500D01*
G01D02*
X13364300D01*
G01X13017500Y1748700D02*
Y1841500D01*
G01D02*
Y1934300D01*
G01X12924700Y1841500D02*
X13017500D01*
G01D02*
X13110300D01*
G54D15*
G01X1289000Y581000D02*
X1152500Y444500D01*
X571500D01*
X381000Y635000D01*
Y2032000D01*
X571500Y2222500D01*
X5715000D01*
X5988000Y1949500D01*
Y1724000D01*
G01X8528000D02*
Y1909870D01*
X8278870Y2159000D01*
X6032500D01*
X5715000Y2476500D01*
X317500D01*
X127000Y2286000D01*
Y317500D01*
X317500Y127000D01*
X1089000D01*
X1543000Y581000D01*
G01X781000D02*
X571500Y790500D01*
Y1079500D01*
X908000Y1416000D01*
Y1724000D01*
G01X781000Y835000D02*
X1670000Y1724000D01*
X2178000D01*
G01X4718000D02*
X4200500D01*
X3810000Y1333500D01*
X1533500D01*
X1035000Y835000D01*
G01X7258000Y1724000D02*
X6804000D01*
X6286500Y1206500D01*
X1660500D01*
X1289000Y835000D01*
G01X1543000D02*
X1787500Y1079500D01*
X8763000D01*
X9407500Y1724000D01*
X9798000D01*
G01X9144000Y571500D02*
Y478740D01*
X9109760Y444500D01*
X7556500D01*
X7048500Y952500D01*
X3798250D01*
X3683000Y837250D01*
Y689000D01*
X3575000Y581000D01*
G01X3321000Y835000D02*
X3470180Y685820D01*
Y498210D01*
X3539920Y428470D01*
X7445530D01*
X7493000Y381000D01*
X9271000D01*
X9334500Y444500D01*
Y571500D01*
G01X3321000Y581000D02*
Y425500D01*
X3429020Y317480D01*
X9397980D01*
X9525000Y444500D01*
Y571500D01*
G01X3067000Y835000D02*
X3216180Y685820D01*
Y339810D01*
X3365490Y190500D01*
X9461500D01*
X9715500Y444500D01*
Y571500D01*
G01X9906000D02*
Y444500D01*
X9525000Y63500D01*
X3302000D01*
X3067000Y298500D01*
Y581000D01*
G01X6223000Y2413000D02*
X10985500D01*
X11239500Y2159000D01*
G01X6223000Y2286000D02*
X10858500D01*
X11239500Y1905000D01*
G01X8147000Y581000D02*
X8264500Y698500D01*
X8445500D01*
X8509000Y762000D01*
Y837250D01*
X8611570Y939820D01*
X9979290D01*
X10792110Y127000D01*
X12509500D01*
X12931820Y549320D01*
X13017500D01*
X13166680Y698500D01*
X13271500D01*
G01X8401000Y581000D02*
X8518500Y698500D01*
X10154220D01*
X10772660Y80060D01*
X12716560D01*
X12976180Y339680D01*
X13342080D01*
X13398500Y396100D01*
Y825500D01*
X13271500Y952500D01*
G01X13017500D02*
Y847680D01*
X12343760Y173940D01*
X10811560D01*
X9997140Y988360D01*
X8554360D01*
X8401000Y835000D01*
G01X8890000Y2159000D02*
X10287000D01*
X10414000Y2032000D01*
G01X10731500Y635000D02*
X10956110D01*
X10985500Y605610D01*
Y508000D01*
X11112500Y381000D01*
X11239500D01*
G01X10731500Y1143000D02*
X10985500Y1397000D01*
X11239500D01*
G01X10731500Y1016000D02*
X10858500Y1143000D01*
X11239500D01*
G01X10731500Y889000D02*
X11239500D01*
G01X10731500Y762000D02*
X11010100D01*
X11137100Y635000D01*
X11239500D01*
G01X13017500Y2095500D02*
X12700000Y1778000D01*
X11112500D01*
X10731500Y2159000D01*
G01X10604500Y2095500D02*
X11176000Y1524000D01*
X12700000D01*
X12827000Y1651000D01*
X13398500D01*
X13525500Y1778000D01*
Y1968500D01*
X13398500Y2095500D01*
X13271500D01*
M02*
