G04 ================== begin FILE IDENTIFICATION RECORD ==================*
G04 Layout Name:  C:/Jeonghyun/Lab/AD9910_Enclosure2/ProfilePCB/allegro/ad9910db.brd*
G04 Film Name:    LAYER_1*
G04 File Format:  Gerber RS274X*
G04 File Origin:  Cadence Allegro 23.1-S003*
G04 Origin Date:  Fri Mar 29 18:47:30 2024*
G04 *
G04 Layer:  ETCH/LAYER_1*
G04 Layer:  PIN/LAYER_1*
G04 Layer:  VIA CLASS/LAYER_1*
G04 *
G04 Offset:    (0.0000 0.0000)*
G04 Mirror:    No*
G04 Mode:      Positive*
G04 Rotation:  0*
G04 FullContactRelief:  No*
G04 UndefLineWidth:     0.0000*
G04 ================== end FILE IDENTIFICATION RECORD ====================*
%FSLAX25Y25*MOMM*%
%IR0*IPPOS*OFA0.00000B0.00000*MIA0B0*SFA1.00000B1.00000*%
%ADD13C,.5*%
%ADD12C,1.5*%
%ADD11C,2.032*%
%ADD10R,1.905X1.905*%
%ADD14C,.127*%
%ADD16C,.7544*%
%ADD15C,1.7544*%
%ADD17C,2.2864*%
G75*
%LPD*%
G75*
G36*
G01X13999990Y2539990D02*
Y10D01*
X10D01*
Y2539990D01*
X13999990D01*
G37*
%LPC*%
G75*
G36*
G01X9690030Y1628750D02*
Y1819250D01*
G02X9702750Y1831970I12720J0D01*
G01X9893250D01*
G02X9905970Y1819250I0J-12720D01*
G01Y1628750D01*
G02X9893250Y1616030I-12720J0D01*
G01X9702750D01*
G02X9690030Y1628750I0J12720D01*
G37*
G36*
G01X8420030D02*
Y1819250D01*
G02X8432750Y1831970I12720J0D01*
G01X8623250D01*
G02X8635970Y1819250I0J-12720D01*
G01Y1628750D01*
G02X8623250Y1616030I-12720J0D01*
G01X8432750D01*
G02X8420030Y1628750I0J12720D01*
G37*
G36*
G01X7150030D02*
Y1819250D01*
G02X7162750Y1831970I12720J0D01*
G01X7353250D01*
G02X7365970Y1819250I0J-12720D01*
G01Y1628750D01*
G02X7353250Y1616030I-12720J0D01*
G01X7162750D01*
G02X7150030Y1628750I0J12720D01*
G37*
G36*
G01X5880030D02*
Y1819250D01*
G02X5892750Y1831970I12720J0D01*
G01X6083250D01*
G02X6095970Y1819250I0J-12720D01*
G01Y1628750D01*
G02X6083250Y1616030I-12720J0D01*
G01X5892750D01*
G02X5880030Y1628750I0J12720D01*
G37*
G36*
G01X4610030D02*
Y1819250D01*
G02X4622750Y1831970I12720J0D01*
G01X4813250D01*
G02X4825970Y1819250I0J-12720D01*
G01Y1628750D01*
G02X4813250Y1616030I-12720J0D01*
G01X4622750D01*
G02X4610030Y1628750I0J12720D01*
G37*
G36*
G01X3340030D02*
Y1819250D01*
G02X3352750Y1831970I12720J0D01*
G01X3543250D01*
G02X3555970Y1819250I0J-12720D01*
G01Y1628750D01*
G02X3543250Y1616030I-12720J0D01*
G01X3352750D01*
G02X3340030Y1628750I0J12720D01*
G37*
G36*
G01X2070030D02*
Y1819250D01*
G02X2082750Y1831970I12720J0D01*
G01X2273250D01*
G02X2285970Y1819250I0J-12720D01*
G01Y1628750D01*
G02X2273250Y1616030I-12720J0D01*
G01X2082750D01*
G02X2070030Y1628750I0J12720D01*
G37*
G36*
G01X800030D02*
Y1819250D01*
G02X812750Y1831970I12720J0D01*
G01X1003250D01*
G02X1015970Y1819250I0J-12720D01*
G01Y1628750D01*
G02X1003250Y1616030I-12720J0D01*
G01X812750D01*
G02X800030Y1628750I0J12720D01*
G37*
G54D16*
X9715500Y571500D03*
X9525000D03*
X9334500D03*
X9144000D03*
X9906000D03*
X10731500Y1143000D03*
Y1016000D03*
Y889000D03*
Y762000D03*
Y635000D03*
X10414000Y2032000D03*
X10604500Y2095500D03*
X6223000Y2286000D03*
Y2413000D03*
X8890000Y2159000D03*
X10731500D03*
G54D15*
X1289000Y581000D03*
X1035000D03*
X781000D03*
X2051000D03*
X1797000D03*
X1543000D03*
X3575000D03*
X3321000D03*
X3067000D03*
X4337000D03*
X4083000D03*
X3829000D03*
X5353000D03*
X5607000D03*
X5861000D03*
X6115000D03*
X6369000D03*
X6623000D03*
X7639000D03*
X7893000D03*
X8147000D03*
X8401000D03*
X8655000D03*
X8909000D03*
X11239500Y635000D03*
Y381000D03*
X11493500Y635000D03*
Y381000D03*
X12128500Y635000D03*
X12382500D03*
X12128500Y381000D03*
X12382500D03*
X13017500Y444500D03*
X13271500D03*
X13017500Y190500D03*
X13271500D03*
X1289000Y835000D03*
X1035000D03*
X781000D03*
X2051000D03*
X1797000D03*
X1543000D03*
X3575000D03*
X3321000D03*
X3067000D03*
X4337000D03*
X4083000D03*
X3829000D03*
X5353000D03*
X5607000D03*
X5861000D03*
X6115000D03*
X6369000D03*
X6623000D03*
X7639000D03*
X7893000D03*
X8147000D03*
X8401000D03*
X8655000D03*
X8909000D03*
X11239500Y1397000D03*
Y1143000D03*
Y889000D03*
X11493500Y1397000D03*
Y1143000D03*
Y889000D03*
X12128500Y1397000D03*
X12382500D03*
X12128500Y1143000D03*
X12382500D03*
X12128500Y889000D03*
X12382500D03*
X13017500Y1206500D03*
X13271500D03*
X13017500Y952500D03*
X13271500D03*
X13017500Y698500D03*
X13271500D03*
X11239500Y2159000D03*
Y1905000D03*
Y1651000D03*
X11493500Y2159000D03*
Y1905000D03*
Y1651000D03*
X12128500Y2159000D03*
X12382500D03*
X12128500Y1905000D03*
X12382500D03*
X12128500Y1651000D03*
X12382500D03*
X13017500Y1460500D03*
X13271500D03*
Y1841500D03*
X13017500D03*
X13271500Y2095500D03*
X13017500D03*
X13271500Y2349500D03*
X13017500D03*
G54D17*
X654000Y1470000D03*
Y1978000D03*
X1162000Y1470000D03*
Y1978000D03*
X1924000Y1470000D03*
Y1978000D03*
X2432000Y1470000D03*
Y1978000D03*
X3702000Y1470000D03*
X3194000D03*
Y1978000D03*
X3702000D03*
X4464000Y1470000D03*
Y1978000D03*
X4972000Y1470000D03*
Y1978000D03*
X5734000Y1470000D03*
Y1978000D03*
X6242000Y1470000D03*
Y1978000D03*
X7512000Y1470000D03*
X7004000D03*
Y1978000D03*
X7512000D03*
X8274000Y1470000D03*
Y1978000D03*
X8782000Y1470000D03*
Y1978000D03*
X9544000Y1470000D03*
Y1978000D03*
X10052000Y1470000D03*
Y1978000D03*
%LPD*%
G75*
G54D10*
X908000Y1724000D03*
X2178000D03*
X3448000D03*
X4718000D03*
X5988000D03*
X7258000D03*
X8528000D03*
X9798000D03*
G54D11*
X654000Y1978000D03*
Y1470000D03*
X1162000Y1978000D03*
Y1470000D03*
X1924000Y1978000D03*
Y1470000D03*
X2432000Y1978000D03*
Y1470000D03*
X3702000Y1978000D03*
X3194000D03*
Y1470000D03*
X3702000D03*
X4464000Y1978000D03*
Y1470000D03*
X4972000Y1978000D03*
Y1470000D03*
X5734000Y1978000D03*
Y1470000D03*
X6242000Y1978000D03*
Y1470000D03*
X7512000Y1978000D03*
X7004000D03*
Y1470000D03*
X7512000D03*
X8274000Y1978000D03*
Y1470000D03*
X8782000Y1978000D03*
Y1470000D03*
X9544000Y1978000D03*
Y1470000D03*
X10052000Y1978000D03*
Y1470000D03*
G54D12*
X1289000Y581000D03*
X1035000D03*
X781000D03*
X1289000Y835000D03*
X1035000D03*
X781000D03*
X2051000Y581000D03*
X1797000D03*
X1543000D03*
X2051000Y835000D03*
X1797000D03*
X1543000D03*
X3575000Y581000D03*
X3321000D03*
X3067000D03*
X3575000Y835000D03*
X3321000D03*
X3067000D03*
X4337000Y581000D03*
X4083000D03*
X3829000D03*
X4337000Y835000D03*
X4083000D03*
X3829000D03*
X5861000Y581000D03*
X5607000D03*
X5353000D03*
X5861000Y835000D03*
X5607000D03*
X5353000D03*
X6623000Y581000D03*
X6369000D03*
X6115000D03*
X6623000Y835000D03*
X6369000D03*
X6115000D03*
X8147000Y581000D03*
X7893000D03*
X7639000D03*
X8147000Y835000D03*
X7893000D03*
X7639000D03*
X8909000Y581000D03*
X8655000D03*
X8401000D03*
X8909000Y835000D03*
X8655000D03*
X8401000D03*
X11239500Y635000D03*
Y381000D03*
Y1397000D03*
Y1143000D03*
Y889000D03*
Y2159000D03*
Y1905000D03*
Y1651000D03*
X11493500Y635000D03*
Y381000D03*
Y1397000D03*
Y1143000D03*
Y889000D03*
Y2159000D03*
Y1905000D03*
Y1651000D03*
X12128500Y635000D03*
X12382500D03*
X12128500Y381000D03*
X12382500D03*
X12128500Y1397000D03*
X12382500D03*
X12128500Y1143000D03*
X12382500D03*
X12128500Y889000D03*
X12382500D03*
X12128500Y2159000D03*
X12382500D03*
X12128500Y1905000D03*
X12382500D03*
X12128500Y1651000D03*
X12382500D03*
X13017500Y444500D03*
X13271500D03*
X13017500Y190500D03*
X13271500D03*
X13017500Y1206500D03*
X13271500D03*
X13017500Y952500D03*
X13271500D03*
X13017500Y698500D03*
X13271500D03*
X13017500Y2095500D03*
X13271500D03*
X13017500Y1841500D03*
X13271500D03*
X13017500Y1460500D03*
X13271500D03*
X13017500Y2349500D03*
X13271500D03*
G54D13*
X6223000Y2413000D03*
Y2286000D03*
X8890000Y2159000D03*
X9144000Y571500D03*
X9334500D03*
X9525000D03*
X9715500D03*
X9906000D03*
X10414000Y2032000D03*
X10731500Y1143000D03*
Y1016000D03*
Y889000D03*
Y762000D03*
Y635000D03*
X10604500Y2095500D03*
X10731500Y2159000D03*
G54D14*
G01X534600Y1470000D02*
X654000D01*
G01X534600Y1978000D02*
X654000D01*
G01Y1350600D02*
Y1470000D01*
G01D02*
Y1589400D01*
G01Y1470000D02*
X773400D01*
G01X654000Y1858600D02*
Y1978000D01*
G01D02*
Y2097400D01*
G01Y1978000D02*
X773400D01*
G01X1162000Y1350600D02*
Y1470000D01*
G01D02*
Y1589400D01*
G01X1042600Y1470000D02*
X1162000D01*
G01D02*
X1281400D01*
G01X1162000Y1858600D02*
Y1978000D01*
G01D02*
Y2097400D01*
G01X1042600Y1978000D02*
X1162000D01*
G01D02*
X1281400D01*
G01X1797000Y488200D02*
Y581000D01*
G01D02*
Y673800D01*
G01X1704200Y581000D02*
X1797000D01*
G01D02*
X1889800D01*
G01X1797000Y742200D02*
Y835000D01*
G01D02*
Y927800D01*
G01X1704200Y835000D02*
X1797000D01*
G01D02*
X1889800D01*
G01X1924000Y1858600D02*
Y1978000D01*
G01D02*
Y2097400D01*
G01X1804600Y1978000D02*
X1924000D01*
G01D02*
X2043400D01*
G01X1924000Y1350600D02*
Y1470000D01*
G01D02*
Y1589400D01*
G01X1804600Y1470000D02*
X1924000D01*
G01D02*
X2043400D01*
G01X2432000Y1858600D02*
Y1978000D01*
G01D02*
Y2097400D01*
G01X2312600Y1978000D02*
X2432000D01*
G01D02*
X2551400D01*
G01X2432000Y1350600D02*
Y1470000D01*
G01D02*
Y1589400D01*
G01X2312600Y1470000D02*
X2432000D01*
G01D02*
X2551400D01*
G01X3582600D02*
X3702000D01*
G01X3194000Y1350600D02*
Y1470000D01*
G01D02*
Y1589400D01*
G01X3074600Y1470000D02*
X3194000D01*
G01D02*
X3313400D01*
G01X3582600Y1978000D02*
X3702000D01*
G01X3194000Y1858600D02*
Y1978000D01*
G01D02*
Y2097400D01*
G01X3074600Y1978000D02*
X3194000D01*
G01D02*
X3313400D01*
G01X4083000Y488200D02*
Y581000D01*
G01D02*
Y673800D01*
G01X3990200Y581000D02*
X4083000D01*
G01D02*
X4175800D01*
G01X4083000Y742200D02*
Y835000D01*
G01D02*
Y927800D01*
G01X3990200Y835000D02*
X4083000D01*
G01D02*
X4175800D01*
G01X3702000Y1350600D02*
Y1470000D01*
G01D02*
Y1589400D01*
G01Y1470000D02*
X3821400D01*
G01X3702000Y1858600D02*
Y1978000D01*
G01D02*
Y2097400D01*
G01Y1978000D02*
X3821400D01*
G01X4344600Y1470000D02*
X4464000D01*
G01X4344600Y1978000D02*
X4464000D01*
G01Y1350600D02*
Y1470000D01*
G01D02*
Y1589400D01*
G01Y1470000D02*
X4583400D01*
G01X4464000Y1858600D02*
Y1978000D01*
G01D02*
Y2097400D01*
G01Y1978000D02*
X4583400D01*
G01X4972000Y1350600D02*
Y1470000D01*
G01D02*
Y1589400D01*
G01X4852600Y1470000D02*
X4972000D01*
G01D02*
X5091400D01*
G01X4972000Y1858600D02*
Y1978000D01*
G01D02*
Y2097400D01*
G01X4852600Y1978000D02*
X4972000D01*
G01D02*
X5091400D01*
G01X5734000Y1350600D02*
Y1470000D01*
G01D02*
Y1589400D01*
G01X5614600Y1470000D02*
X5734000D01*
G01D02*
X5853400D01*
G01X5734000Y1858600D02*
Y1978000D01*
G01D02*
Y2097400D01*
G01X5614600Y1978000D02*
X5734000D01*
G01D02*
X5853400D01*
G01X6369000Y488200D02*
Y581000D01*
G01D02*
Y673800D01*
G01X6276200Y581000D02*
X6369000D01*
G01D02*
X6461800D01*
G01X6369000Y742200D02*
Y835000D01*
G01D02*
Y927800D01*
G01X6276200Y835000D02*
X6369000D01*
G01D02*
X6461800D01*
G01X6242000Y1350600D02*
Y1470000D01*
G01D02*
Y1589400D01*
G01X6122600Y1470000D02*
X6242000D01*
G01D02*
X6361400D01*
G01X6242000Y1858600D02*
Y1978000D01*
G01D02*
Y2097400D01*
G01X6122600Y1978000D02*
X6242000D01*
G01D02*
X6361400D01*
G01X7392600Y1470000D02*
X7512000D01*
G01X7004000Y1350600D02*
Y1470000D01*
G01D02*
Y1589400D01*
G01X6884600Y1470000D02*
X7004000D01*
G01D02*
X7123400D01*
G01X7004000Y1858600D02*
Y1978000D01*
G01D02*
Y2097400D01*
G01X6884600Y1978000D02*
X7004000D01*
G01D02*
X7123400D01*
G01X7392600D02*
X7512000D01*
G01X8154600D02*
X8274000D01*
G01X7512000Y1350600D02*
Y1470000D01*
G01D02*
Y1589400D01*
G01Y1470000D02*
X7631400D01*
G01X7512000Y1858600D02*
Y1978000D01*
G01D02*
Y2097400D01*
G01Y1978000D02*
X7631400D01*
G01X8154600Y1470000D02*
X8274000D01*
G01X8655000Y488200D02*
Y581000D01*
G01D02*
Y673800D01*
G01X8562200Y581000D02*
X8655000D01*
G01D02*
X8747800D01*
G01X8655000Y742200D02*
Y835000D01*
G01D02*
Y927800D01*
G01X8562200Y835000D02*
X8655000D01*
G01D02*
X8747800D01*
G01X8274000Y1858600D02*
Y1978000D01*
G01D02*
Y2097400D01*
G01Y1978000D02*
X8393400D01*
G01X8782000Y1858600D02*
Y1978000D01*
G01D02*
Y2097400D01*
G01X8662600Y1978000D02*
X8782000D01*
G01D02*
X8901400D01*
G01X8274000Y1350600D02*
Y1470000D01*
G01D02*
Y1589400D01*
G01Y1470000D02*
X8393400D01*
G01X8782000Y1350600D02*
Y1470000D01*
G01D02*
Y1589400D01*
G01X8662600Y1470000D02*
X8782000D01*
G01D02*
X8901400D01*
G01X9544000Y1350600D02*
Y1470000D01*
G01D02*
Y1589400D01*
G01X9424600Y1470000D02*
X9544000D01*
G01D02*
X9663400D01*
G01X9544000Y1858600D02*
Y1978000D01*
G01D02*
Y2097400D01*
G01X9424600Y1978000D02*
X9544000D01*
G01D02*
X9663400D01*
G01X10052000Y1350600D02*
Y1470000D01*
G01D02*
Y1589400D01*
G01X9932600Y1470000D02*
X10052000D01*
G01D02*
X10171400D01*
G01X10052000Y1858600D02*
Y1978000D01*
G01D02*
Y2097400D01*
G01X9932600Y1978000D02*
X10052000D01*
G01D02*
X10171400D01*
G01X11493500Y542200D02*
Y635000D01*
G01Y288200D02*
Y381000D01*
G01D02*
Y473800D01*
G01X11400700Y381000D02*
X11493500D01*
G01D02*
X11586300D01*
G01X11493500Y635000D02*
Y727800D01*
G01X11400700Y635000D02*
X11493500D01*
G01D02*
X11586300D01*
G01X11493500Y1304200D02*
Y1397000D01*
G01Y1050200D02*
Y1143000D01*
G01D02*
Y1235800D01*
G01X11400700Y1143000D02*
X11493500D01*
G01D02*
X11586300D01*
G01X11493500Y796200D02*
Y889000D01*
G01D02*
Y981800D01*
G01X11400700Y889000D02*
X11493500D01*
G01D02*
X11586300D01*
G01X11493500Y1397000D02*
Y1489800D01*
G01X11400700Y1397000D02*
X11493500D01*
G01D02*
X11586300D01*
G01X11493500Y1812200D02*
Y1905000D01*
G01D02*
Y1997800D01*
G01X11400700Y1905000D02*
X11493500D01*
G01D02*
X11586300D01*
G01X11493500Y2066200D02*
Y2159000D01*
G01Y1558200D02*
Y1651000D01*
G01D02*
Y1743800D01*
G01X11400700Y1651000D02*
X11493500D01*
G01D02*
X11586300D01*
G01X11493500Y2159000D02*
Y2251800D01*
G01X11400700Y2159000D02*
X11493500D01*
G01D02*
X11586300D01*
G01X12382500Y288200D02*
Y381000D01*
G01D02*
Y473800D01*
G01X12289700Y381000D02*
X12382500D01*
G01D02*
X12475300D01*
G01X12382500Y542200D02*
Y635000D01*
G01Y1050200D02*
Y1143000D01*
G01D02*
Y1235800D01*
G01X12289700Y1143000D02*
X12382500D01*
G01D02*
X12475300D01*
G01X12382500Y635000D02*
Y727800D01*
G01X12289700Y635000D02*
X12382500D01*
G01D02*
X12475300D01*
G01X12382500Y1304200D02*
Y1397000D01*
G01Y796200D02*
Y889000D01*
G01D02*
Y981800D01*
G01X12289700Y889000D02*
X12382500D01*
G01D02*
X12475300D01*
G01X12382500Y1397000D02*
Y1489800D01*
G01X12289700Y1397000D02*
X12382500D01*
G01D02*
X12475300D01*
G01X12382500Y2066200D02*
Y2159000D01*
G01Y1812200D02*
Y1905000D01*
G01D02*
Y1997800D01*
G01X12289700Y1905000D02*
X12382500D01*
G01D02*
X12475300D01*
G01X12382500Y1558200D02*
Y1651000D01*
G01D02*
Y1743800D01*
G01X12289700Y1651000D02*
X12382500D01*
G01D02*
X12475300D01*
G01X12382500Y2159000D02*
Y2251800D01*
G01X12289700Y2159000D02*
X12382500D01*
G01D02*
X12475300D01*
G01X13017500Y1113700D02*
Y1206500D01*
G01D02*
Y1299300D01*
G01X12924700Y1206500D02*
X13017500D01*
G01D02*
X13110300D01*
G01X13271500Y1113700D02*
Y1206500D01*
G01D02*
Y1299300D01*
G01X13178700Y1206500D02*
X13271500D01*
G01D02*
X13364300D01*
G01X13271500Y1748700D02*
Y1841500D01*
G01D02*
Y1934300D01*
G01X13178700Y1841500D02*
X13271500D01*
G01D02*
X13364300D01*
G01X13017500Y1748700D02*
Y1841500D01*
G01D02*
Y1934300D01*
G01X12924700Y1841500D02*
X13017500D01*
G01D02*
X13110300D01*
M02*
