G04 ================== begin FILE IDENTIFICATION RECORD ==================*
G04 Layout Name:  C:/Jeonghyun/Lab/AD9910_Enclosure2/ProfilePCB/allegro/ad9910db.brd*
G04 Film Name:    TOP*
G04 File Format:  Gerber RS274X*
G04 File Origin:  Cadence Allegro 23.1-S003*
G04 Origin Date:  Fri Mar 29 18:47:30 2024*
G04 *
G04 Layer:  ETCH/TOP*
G04 Layer:  PIN/TOP*
G04 Layer:  VIA CLASS/TOP*
G04 *
G04 Offset:    (0.0000 0.0000)*
G04 Mirror:    No*
G04 Mode:      Positive*
G04 Rotation:  0*
G04 FullContactRelief:  No*
G04 UndefLineWidth:     0.0000*
G04 ================== end FILE IDENTIFICATION RECORD ====================*
%FSLAX25Y25*MOMM*%
%IR0*IPPOS*OFA0.00000B0.00000*MIA0B0*SFA1.00000B1.00000*%
%ADD13C,.5*%
%ADD12C,1.5*%
%ADD11C,2.032*%
%ADD10R,1.905X1.905*%
%ADD14C,.127*%
%ADD15C,.2939*%
%ADD16C,1.7544*%
%ADD17C,2.2864*%
G75*
%LPD*%
G75*
G36*
G01X13999990Y10D02*
X10D01*
Y2539990D01*
X13999990D01*
Y10D01*
G37*
%LPC*%
G75*
G36*
G01X9690030Y1628750D02*
Y1819250D01*
G02X9702750Y1831970I12720J0D01*
G01X9893250D01*
G02X9905970Y1819250I0J-12720D01*
G01Y1628750D01*
G02X9893250Y1616030I-12720J0D01*
G01X9702750D01*
G02X9690030Y1628750I0J12720D01*
G37*
G36*
G01X8420030D02*
Y1819250D01*
G02X8432750Y1831970I12720J0D01*
G01X8623250D01*
G02X8635970Y1819250I0J-12720D01*
G01Y1628750D01*
G02X8623250Y1616030I-12720J0D01*
G01X8432750D01*
G02X8420030Y1628750I0J12720D01*
G37*
G36*
G01X7150030D02*
Y1819250D01*
G02X7162750Y1831970I12720J0D01*
G01X7353250D01*
G02X7365970Y1819250I0J-12720D01*
G01Y1628750D01*
G02X7353250Y1616030I-12720J0D01*
G01X7162750D01*
G02X7150030Y1628750I0J12720D01*
G37*
G36*
G01X5880030D02*
Y1819250D01*
G02X5892750Y1831970I12720J0D01*
G01X6083250D01*
G02X6095970Y1819250I0J-12720D01*
G01Y1628750D01*
G02X6083250Y1616030I-12720J0D01*
G01X5892750D01*
G02X5880030Y1628750I0J12720D01*
G37*
G36*
G01X4610030D02*
Y1819250D01*
G02X4622750Y1831970I12720J0D01*
G01X4813250D01*
G02X4825970Y1819250I0J-12720D01*
G01Y1628750D01*
G02X4813250Y1616030I-12720J0D01*
G01X4622750D01*
G02X4610030Y1628750I0J12720D01*
G37*
G36*
G01X2070030D02*
Y1819250D01*
G02X2082750Y1831970I12720J0D01*
G01X2273250D01*
G02X2285970Y1819250I0J-12720D01*
G01Y1628750D01*
G02X2273250Y1616030I-12720J0D01*
G01X2082750D01*
G02X2070030Y1628750I0J12720D01*
G37*
G36*
G01X800030D02*
Y1819250D01*
G02X812750Y1831970I12720J0D01*
G01X1003250D01*
G02X1015970Y1819250I0J-12720D01*
G01Y1628750D01*
G02X1003250Y1616030I-12720J0D01*
G01X812750D01*
G02X800030Y1628750I0J12720D01*
G37*
G36*
G01X9944950Y659550D02*
G02X9969500Y669720I24550J-24546D01*
G01X10716710D01*
X10717620Y670070D01*
G02X10731500Y672720I13888J-35068D01*
G02Y597280I0J-37720D01*
G02X10717620Y599930I8J37718D01*
G01X10716710Y600280D01*
X9983880D01*
X9941000Y557410D01*
X9940620Y556520D01*
G02X9906000Y533780I-34620J14983D01*
G02X9868280Y571500I0J37720D01*
G02X9891020Y606120I37723J0D01*
G01X9891910Y606500D01*
X9944950Y659550D01*
G37*
G36*
G01X9881450Y786550D02*
G02X9906000Y796720I24550J-24546D01*
G01X10716710D01*
X10717620Y797070D01*
G02X10731500Y799720I13888J-35068D01*
G02Y724280I0J-37720D01*
G02X10717620Y726930I8J37718D01*
G01X10716710Y727280D01*
X9920380D01*
X9750500Y557410D01*
X9750120Y556520D01*
G02X9715500Y533780I-34620J14983D01*
G02X9677780Y571500I0J37720D01*
G02X9700520Y606120I37723J0D01*
G01X9701410Y606500D01*
X9881450Y786550D01*
G37*
G36*
G01X9817950Y913550D02*
G02X9842500Y923720I24550J-24546D01*
G01X10716710D01*
X10717620Y924070D01*
G02X10731500Y926720I13888J-35068D01*
G02Y851280I0J-37720D01*
G02X10717620Y853930I8J37718D01*
G01X10716710Y854280D01*
X9856880D01*
X9560000Y557410D01*
X9559620Y556520D01*
G02X9525000Y533780I-34620J14983D01*
G02X9487280Y571500I0J37720D01*
G02X9510020Y606120I37723J0D01*
G01X9510910Y606500D01*
X9817950Y913550D01*
G37*
G36*
G01X9754450Y1040550D02*
G02X9779000Y1050720I24550J-24546D01*
G01X10716710D01*
X10717620Y1051070D01*
G02X10731500Y1053720I13888J-35068D01*
G02Y978280I0J-37720D01*
G02X10717620Y980930I8J37718D01*
G01X10716710Y981280D01*
X9793380D01*
X9369500Y557410D01*
X9369120Y556520D01*
G02X9334500Y533780I-34620J14983D01*
G02X9296780Y571500I0J37720D01*
G02X9319520Y606120I37723J0D01*
G01X9320410Y606500D01*
X9754450Y1040550D01*
G37*
G36*
G01X9690950Y1167550D02*
G02X9715500Y1177720I24550J-24546D01*
G01X10716710D01*
X10717620Y1178070D01*
G02X10731500Y1180720I13888J-35068D01*
G02Y1105280I0J-37720D01*
G02X10717620Y1107930I8J37718D01*
G01X10716710Y1108280D01*
X9729880D01*
X9179000Y557410D01*
X9178620Y556520D01*
G02X9144000Y533780I-34620J14983D01*
G02X9106280Y571500I0J37720D01*
G02X9129020Y606120I37723J0D01*
G01X9129910Y606500D01*
X9690950Y1167550D01*
G37*
G36*
G01X10770450Y1626450D02*
X10399910Y1997000D01*
X10399020Y1997380D01*
G02X10376280Y2032000I14983J34620D01*
G02X10414000Y2069720I37720J0D01*
G02X10448620Y2046980I0J-37723D01*
G01X10449000Y2046090D01*
X10809380Y1685720D01*
X11158940D01*
G02X11239500Y1738720I80560J-34726D01*
G02Y1563280I0J-87720D01*
G02X11158940Y1616280I0J87726D01*
G01X10795000D01*
G02X10770450Y1626450I0J34716D01*
G37*
G36*
G01X5436450Y2183550D02*
G02X5461000Y2193720I24550J-24546D01*
G01X8875210D01*
X8876120Y2194070D01*
G02X8890000Y2196720I13888J-35068D01*
G02Y2121280I0J-37720D01*
G02X8876120Y2123930I8J37718D01*
G01X8875210Y2124280D01*
X5475380D01*
X5305220Y1954120D01*
Y1270000D01*
G02X5295050Y1245450I-34716J0D01*
G01X5051220Y1001620D01*
Y317500D01*
G02X5041050Y292950I-34716J0D01*
G01X4914050Y165950D01*
G02X4889500Y155780I-24550J24546D01*
G01X3810000D01*
G02X3785450Y165950I0J34716D01*
G01X3658450Y292950D01*
G02X3648280Y317500I24546J24550D01*
G01Y506200D01*
G03X3631570Y513960I-10159J-4D01*
G02X3575000Y493280I-56570J67033D01*
G02Y668720I0J87720D01*
G02X3631570Y648040I0J-87713D01*
G03X3648280Y655800I6551J7764D01*
G01Y712620D01*
X3607460Y753440D01*
X3604440Y752370D01*
G02X3575000Y747280I-29446J82629D01*
G02X3662720Y835000I0J87720D01*
G02X3657630Y805560I-87719J6D01*
G01X3656560Y802540D01*
X3707550Y751550D01*
G02X3717720Y727000I-24546J-24550D01*
G01Y331880D01*
X3824380Y225220D01*
X4875120D01*
X4981780Y331880D01*
Y1016000D01*
G02X4991950Y1040550I34716J0D01*
G01X5235780Y1284380D01*
Y1968500D01*
G02X5245950Y1993050I34716J0D01*
G01X5436450Y2183550D01*
G37*
G36*
G01X356450Y2056550D02*
X546950Y2247050D01*
G02X571500Y2257220I24550J-24546D01*
G01X3302000D01*
G02X3326550Y2247050I0J-34716D01*
G01X3472550Y2101050D01*
G02X3482720Y2076500I-24546J-24550D01*
G01Y1831970D01*
X3543250D01*
G02X3555970Y1819250I0J-12720D01*
G01Y1628750D01*
G02X3543250Y1616030I-12720J0D01*
G01X3352750D01*
G02X3340030Y1628750I0J12720D01*
G01Y1819250D01*
G02X3352750Y1831970I12720J0D01*
G01X3413280D01*
Y2062120D01*
X3287620Y2187780D01*
X585880D01*
X415720Y2017620D01*
Y522380D01*
X522380Y415720D01*
X820620D01*
X953440Y548540D01*
X952370Y551560D01*
G02X947280Y581000I82629J29446D01*
G02X1035000Y493280I87720J0D01*
G02X1005560Y498370I6J87719D01*
G01X1002540Y499440D01*
X859550Y356450D01*
G02X835000Y346280I-24550J24546D01*
G01X508000D01*
G02X483450Y356450I0J34716D01*
G01X356450Y483450D01*
G02X346280Y508000I24546J24550D01*
G01Y2032000D01*
G02X356450Y2056550I34716J0D01*
G37*
G36*
G01X4356950Y2310550D02*
G02X4381500Y2320720I24550J-24546D01*
G01X6208210D01*
X6209120Y2321070D01*
G02X6223000Y2323720I13888J-35068D01*
G02Y2248280I0J-37720D01*
G02X6209120Y2250930I8J37718D01*
G01X6208210Y2251280D01*
X4395880D01*
X4289220Y2144620D01*
Y1220880D01*
X4596550Y913550D01*
G02X4606720Y889000I-24546J-24550D01*
G01Y508000D01*
G02X4596550Y483450I-34716J0D01*
G01X4455080Y341980D01*
G02X4430530Y331820I-24539J24554D01*
G01X4043470D01*
G02X4018920Y341980I-11J34714D01*
G01X3861460Y499440D01*
X3858440Y498370D01*
G02X3829000Y493280I-29446J82629D01*
G02X3916720Y581000I0J87720D01*
G02X3911630Y551560I-87719J6D01*
G01X3910560Y548540D01*
X4057850Y401240D01*
X4416150D01*
X4537280Y522380D01*
Y874620D01*
X4229950Y1181950D01*
G02X4219780Y1206500I24546J24550D01*
G01Y2159000D01*
G02X4229950Y2183550I34716J0D01*
G01X4356950Y2310550D01*
G37*
G36*
G01X4293450Y2437550D02*
G02X4318000Y2447720I24550J-24546D01*
G01X6208210D01*
X6209120Y2448070D01*
G02X6223000Y2450720I13888J-35068D01*
G02Y2375280I0J-37720D01*
G02X6209120Y2377930I8J37718D01*
G01X6208210Y2378280D01*
X4332380D01*
X4035220Y2081120D01*
Y1006500D01*
G02X4025050Y981950I-34716J0D01*
G01X3910560Y867460D01*
X3911630Y864440D01*
G02X3916720Y835000I-82629J-29446D01*
G02X3829000Y922720I-87720J0D01*
G02X3858440Y917630I-6J-87719D01*
G01X3861460Y916560D01*
X3965780Y1020880D01*
Y2095500D01*
G02X3975950Y2120050I34716J0D01*
G01X4293450Y2437550D01*
G37*
G36*
G01X9419600Y2501050D02*
G02X9444150Y2511220I24550J-24546D01*
G01X12518170D01*
G02X12542720Y2501050I0J-34716D01*
G01X12661050Y2382720D01*
G02X12671220Y2358170I-24546J-24550D01*
G01Y889000D01*
G02X12661050Y864450I-34716J0D01*
G01X12556230Y759630D01*
G02X12531680Y749460I-24550J24546D01*
G01X12292060D01*
X12210060Y667460D01*
X12211130Y664440D01*
G02X12216220Y635000I-82629J-29446D01*
G02X12040780I-87720J0D01*
G02X12045870Y664440I87719J-6D01*
G01X12046940Y667460D01*
X11786450Y927950D01*
G02X11776280Y952500I24546J24550D01*
G01Y1587500D01*
G02X11786450Y1612050I34716J0D01*
G01X12046940Y1872540D01*
X12045870Y1875560D01*
G02X12040780Y1905000I82629J29446D01*
G02X12128500Y1817280I87720J0D01*
G02X12099060Y1822370I6J87719D01*
G01X12096040Y1823440D01*
X11845720Y1573120D01*
Y966880D01*
X12096040Y716560D01*
X12099060Y717630D01*
G02X12128500Y722720I29446J-82629D01*
G02X12157940Y717630I-6J-87719D01*
G01X12160960Y716560D01*
X12253130Y808730D01*
G02X12277680Y818900I24550J-24546D01*
G01X12305120D01*
G03X12313160Y835280I7J10160D01*
G02X12294780Y889000I69337J53728D01*
G02X12470220I87720J0D01*
G02X12451840Y835280I-87717J8D01*
G03X12459880Y818900I8033J-6220D01*
G01X12517300D01*
X12601780Y903380D01*
Y1034660D01*
G03X12584440Y1041850I-10159J4D01*
G01X12556230Y1013630D01*
G02X12531680Y1003460I-24550J24546D01*
G01X12292060D01*
X12210060Y921460D01*
X12211130Y918440D01*
G02X12216220Y889000I-82629J-29446D01*
G02X12040780I-87720J0D01*
G02X12045870Y918440I87719J-6D01*
G01X12046940Y921460D01*
X11913450Y1054950D01*
G02X11903280Y1079500I24546J24550D01*
G01Y1460500D01*
G02X11913450Y1485050I34716J0D01*
G01X12046940Y1618540D01*
X12045870Y1621560D01*
G02X12040780Y1651000I82629J29446D01*
G02X12128500Y1563280I87720J0D01*
G02X12099060Y1568370I6J87719D01*
G01X12096040Y1569440D01*
X11972720Y1446120D01*
Y1093880D01*
X12096040Y970560D01*
X12099060Y971630D01*
G02X12128500Y976720I29446J-82629D01*
G02X12157940Y971630I-6J-87719D01*
G01X12160960Y970560D01*
X12253130Y1062730D01*
G02X12277680Y1072900I24550J-24546D01*
G01X12305120D01*
G03X12313160Y1089280I7J10160D01*
G02X12294780Y1143000I69337J53728D01*
G02X12334770Y1216600I87724J0D01*
G03X12329250Y1235280I-5526J8523D01*
G01X12269880D01*
X12210060Y1175460D01*
X12211130Y1172440D01*
G02X12216220Y1143000I-82629J-29446D01*
G02X12128500Y1230720I-87720J0D01*
G02X12157940Y1225630I-6J-87719D01*
G01X12160960Y1224560D01*
X12230950Y1294550D01*
G02X12255500Y1304720I24550J-24546D01*
G01X12329250D01*
G03X12334770Y1323400I-6J10157D01*
G02Y1470600I47734J73600D01*
G03X12329250Y1489280I-5526J8523D01*
G01X12269880D01*
X12210060Y1429460D01*
X12211130Y1426440D01*
G02X12216220Y1397000I-82629J-29446D01*
G02X12128500Y1484720I-87720J0D01*
G02X12157940Y1479630I-6J-87719D01*
G01X12160960Y1478560D01*
X12230950Y1548550D01*
G02X12255500Y1558720I24550J-24546D01*
G01X12329250D01*
G03X12334770Y1577400I-6J10157D01*
G02X12294780Y1651000I47734J73600D01*
G02X12382500Y1738720I87720J0D01*
G02X12443720Y1713830I0J-87734D01*
G03X12460960Y1721110I7083J7279D01*
G01Y1834890D01*
G03X12443720Y1842170I-10157J1D01*
G02X12382500Y1817280I-61220J62844D01*
G02Y1992720I0J87720D01*
G02X12443720Y1967830I0J-87734D01*
G03X12460960Y1975110I7083J7279D01*
G01Y2088890D01*
G03X12443720Y2096170I-10157J1D01*
G02X12382500Y2071280I-61220J62844D01*
G02Y2246720I0J87720D01*
G02X12443720Y2221830I0J-87734D01*
G03X12460960Y2229110I7083J7279D01*
G01Y2285440D01*
X12445440Y2300960D01*
X12060160D01*
G03X12052970Y2283620I-4J-10159D01*
G01X12096040Y2240560D01*
X12099060Y2241630D01*
G02X12128500Y2246720I29446J-82629D01*
G02Y2071280I0J-87720D01*
G02X12099060Y2076370I6J87719D01*
G01X12096040Y2077440D01*
X11718720Y1700120D01*
Y839880D01*
X12096040Y462560D01*
X12099060Y463630D01*
G02X12128500Y468720I29446J-82629D01*
G02X12216220Y381000I0J-87720D01*
G02X12172210Y304940I-87730J0D01*
G03X12177270Y285980I5064J-8804D01*
G01X12333730D01*
G03X12338790Y304940I-4J10156D01*
G02X12294780Y381000I43720J76060D01*
G02X12470220I87720J0D01*
G02X12426210Y304940I-87730J0D01*
G03X12431270Y285980I5064J-8804D01*
G01X12555880D01*
X12935940Y666040D01*
X12934870Y669060D01*
G02X12929780Y698500I82629J29446D01*
G02X13017500Y610780I87720J0D01*
G02X12988060Y615870I6J87719D01*
G01X12985040Y616940D01*
X12624470Y256380D01*
G03X12631660Y239040I7186J-7181D01*
G01X12760040D01*
X12887810Y366810D01*
G02X12896860Y373320I24534J-24561D01*
G01X12897590Y373690D01*
X12935940Y412040D01*
X12934870Y415060D01*
G02X12929780Y444500I82629J29446D01*
G02X13017500Y356780I87720J0D01*
G02X12988060Y361870I6J87719D01*
G01X12985040Y362940D01*
X12969470Y347380D01*
G03X12976660Y330040I7186J-7181D01*
G01X13107940D01*
X13189940Y412040D01*
X13188870Y415060D01*
G02X13183780Y444500I82629J29446D01*
G02X13271500Y356780I87720J0D01*
G02X13242060Y361870I6J87719D01*
G01X13239040Y362940D01*
X13146870Y270770D01*
G02X13122320Y260600I-24550J24546D01*
G01X13094880D01*
G03X13086840Y244220I-7J-10160D01*
G02X13105220Y190500I-69337J-53728D01*
G02X13065230Y116900I-87724J0D01*
G03X13070750Y98220I5526J-8523D01*
G01X13130120D01*
X13189940Y158040D01*
X13188870Y161060D01*
G02X13183780Y190500I82629J29446D01*
G02X13271500Y102780I87720J0D01*
G02X13242060Y107870I6J87719D01*
G01X13239040Y108940D01*
X13169050Y38950D01*
G02X13144500Y28780I-24550J24546D01*
G01X8156500D01*
G02X8131950Y38950I0J34716D01*
G01X7671460Y499440D01*
X7668440Y498370D01*
G02X7639000Y493280I-29446J82629D01*
G02Y668720I0J87720D01*
G02X7692720Y650340I-8J-87717D01*
G03X7709100Y658380I6220J8033D01*
G01Y715800D01*
X7671460Y753440D01*
X7668440Y752370D01*
G02X7639000Y747280I-29446J82629D01*
G02X7726720Y835000I0J87720D01*
G02X7721630Y805560I-87719J6D01*
G01X7720560Y802540D01*
X7768370Y754730D01*
G02X7778540Y730180I-24546J-24550D01*
G01Y589060D01*
X7788100Y579490D01*
G03X7805430Y586090I7185J7185D01*
G02X7893000Y668720I87570J-5088D01*
G02X7946720Y650340I-8J-87717D01*
G03X7963100Y658380I6220J8033D01*
G01Y715800D01*
X7925460Y753440D01*
X7922440Y752370D01*
G02X7893000Y747280I-29446J82629D01*
G02X7980720Y835000I0J87720D01*
G02X7975630Y805560I-87719J6D01*
G01X7974560Y802540D01*
X8022370Y754730D01*
G02X8032540Y730180I-24546J-24550D01*
G01Y589060D01*
X8042100Y579490D01*
G03X8059430Y586090I7185J7185D01*
G02X8147000Y668720I87570J-5088D01*
G02X8234720Y581000I0J-87720D01*
G02X8152090Y493430I-87718J0D01*
G03X8145490Y476100I585J-10145D01*
G01X8244120Y377470D01*
G03X8261460Y384660I7181J7186D01*
G01Y671440D01*
X8179460Y753440D01*
X8176440Y752370D01*
G02X8147000Y747280I-29446J82629D01*
G02X8234720Y835000I0J87720D01*
G02X8229630Y805560I-87719J6D01*
G01X8228560Y802540D01*
X8320730Y710370D01*
G02X8330900Y685820I-24546J-24550D01*
G01Y658380D01*
G03X8347280Y650340I10160J-7D01*
G02X8401000Y668720I53728J-69337D01*
G02Y493280I0J-87720D01*
G02X8347280Y511660I8J87717D01*
G03X8330900Y503620I-6220J-8033D01*
G01Y354200D01*
X8399120Y285980D01*
X11190730D01*
G03X11195790Y304940I-4J10156D01*
G02X11151780Y381000I43720J76060D01*
G02X11327220I87720J0D01*
G02X11283210Y304940I-87730J0D01*
G03X11288270Y285980I5064J-8804D01*
G01X11444730D01*
G03X11449790Y304940I-4J10156D01*
G02X11405780Y381000I43720J76060D01*
G02X11581220I87720J0D01*
G02X11537210Y304940I-87730J0D01*
G03X11542270Y285980I5064J-8804D01*
G01X12079730D01*
G03X12084790Y304940I-4J10156D01*
G02X12040780Y381000I43720J76060D01*
G02X12045870Y410440I87719J-6D01*
G01X12046940Y413460D01*
X11659450Y800950D01*
G02X11649280Y825500I24546J24550D01*
G01Y1714500D01*
G02X11659450Y1739050I34716J0D01*
G01X12046940Y2126540D01*
X12045870Y2129560D01*
G02X12040780Y2159000I82629J29446D01*
G02X12045870Y2188440I87719J-6D01*
G01X12046940Y2191460D01*
X11984380Y2254020D01*
X11542270D01*
G03X11537210Y2235060I4J-10156D01*
G02X11581220Y2159000I-43720J-76060D01*
G02X11405780I-87720J0D01*
G02X11449790Y2235060I87730J0D01*
G03X11444730Y2254020I-5064J8804D01*
G01X11288270D01*
G03X11283210Y2235060I4J-10156D01*
G02X11327220Y2159000I-43720J-76060D01*
G02X11151780I-87720J0D01*
G02X11195790Y2235060I87730J0D01*
G03X11190730Y2254020I-5064J8804D01*
G01X10710100D01*
G03X10702910Y2236680I-4J-10159D01*
G01X10745590Y2194000D01*
X10746480Y2193620D01*
G02X10769220Y2159000I-14983J-34620D01*
G02X10731500Y2121280I-37720J0D01*
G02X10696880Y2144020I0J37723D01*
G01X10696500Y2144910D01*
X10634320Y2207080D01*
X10566540D01*
G03X10559350Y2189740I-4J-10159D01*
G01X10618590Y2130500D01*
X10619480Y2130120D01*
G02X10642220Y2095500I-14983J-34620D01*
G02X10604500Y2057780I-37720J0D01*
G02X10569880Y2080520I0J37723D01*
G01X10569500Y2081410D01*
X10490760Y2160140D01*
X9575230D01*
X9524100Y2109010D01*
G03X9532320Y2091720I7183J-7184D01*
G02X9544000Y2092320I11697J-113719D01*
G02X9429680Y1978000I0J-114320D01*
G02X9430280Y1989680I114319J-17D01*
G03X9412990Y1997900I-10106J1037D01*
G01X9369220Y1954130D01*
Y1270010D01*
G02X9359050Y1245460I-34716J0D01*
G01X9060840Y947250D01*
G02X9036290Y937080I-24550J24546D01*
G01X7590170D01*
X6962600Y309510D01*
G02X6938050Y299340I-24550J24546D01*
G01X6206440D01*
G02X6181890Y309510I0J34716D01*
G01X5952660Y538750D01*
G03X5936710Y536690I-7180J-7188D01*
G02X5861000Y493280I-75710J44317D01*
G02Y668720I0J87720D01*
G02X5917570Y648040I0J-87713D01*
G03X5934280Y655800I6551J7764D01*
G01Y689000D01*
G02X5944450Y713550I34716J0D01*
G01X6033440Y802540D01*
X6032370Y805560D01*
G02X6027280Y835000I82629J29446D01*
G02X6115000Y747280I87720J0D01*
G02X6085560Y752370I6J87719D01*
G01X6082540Y753440D01*
X6003720Y674620D01*
Y585880D01*
X6010100Y579490D01*
G03X6027430Y586090I7185J7185D01*
G02X6115000Y668720I87570J-5088D01*
G02X6202720Y581000I0J-87720D01*
G02X6197630Y551560I-87719J6D01*
G01X6196560Y548540D01*
X6329380Y415720D01*
X6904220D01*
X7502130Y1013620D01*
G03X7494940Y1030960I-7186J7181D01*
G01X6001240D01*
X5895720Y925440D01*
Y915560D01*
G02X5948720Y835000I-34726J-80560D01*
G02X5773280I-87720J0D01*
G02X5826280Y915560I87726J0D01*
G01Y939820D01*
G02X5836450Y964370I34716J0D01*
G01X5932650Y1060560D01*
G03X5925460Y1077900I-7186J7181D01*
G01X5794180D01*
X5641720Y925440D01*
Y915560D01*
G02X5694720Y835000I-34726J-80560D01*
G02X5607000Y747280I-87720J0D01*
G02X5553280Y765660I8J87717D01*
G03X5536900Y757620I-6220J-8033D01*
G01Y700200D01*
X5574540Y662560D01*
X5577560Y663630D01*
G02X5607000Y668720I29446J-82629D01*
G02X5519280Y581000I0J-87720D01*
G02X5524370Y610440I87719J-6D01*
G01X5525440Y613460D01*
X5477630Y661270D01*
G02X5467460Y685820I24546J24550D01*
G01Y917790D01*
G02X5477630Y942340I34716J0D01*
G01X5689740Y1154440D01*
G03X5682550Y1171780I-7186J7181D01*
G01X5634060D01*
X5387720Y925440D01*
Y915560D01*
G02X5440720Y835000I-34726J-80560D01*
G02X5265280I-87720J0D01*
G02X5318280Y915560I87726J0D01*
G01Y926660D01*
G03X5300940Y933850I-10159J4D01*
G01X5241720Y874620D01*
Y741380D01*
X5320540Y662560D01*
X5323560Y663630D01*
G02X5353000Y668720I29446J-82629D01*
G02X5265280Y581000I0J-87720D01*
G02X5270370Y610440I87719J-6D01*
G01X5271440Y613460D01*
X5182450Y702450D01*
G02X5172280Y727000I24546J24550D01*
G01Y889000D01*
G02X5182450Y913550I34716J0D01*
G01X5563450Y1294550D01*
G02X5588000Y1304720I24550J-24546D01*
G01X8921770D01*
X9018140Y1401090D01*
Y2085210D01*
G02X9028310Y2109760I34716J0D01*
G01X9419600Y2501050D01*
G37*
G54D16*
X1289000Y581000D03*
X781000D03*
X2051000D03*
X1797000D03*
X1543000D03*
X3321000D03*
X3067000D03*
X4337000D03*
X4083000D03*
X6369000D03*
X6623000D03*
X8655000D03*
X8909000D03*
X11239500Y635000D03*
X11493500D03*
X12382500D03*
X1289000Y835000D03*
X1035000D03*
X781000D03*
X2051000D03*
X1797000D03*
X1543000D03*
X3321000D03*
X3067000D03*
X4337000D03*
X4083000D03*
X6369000D03*
X6623000D03*
X8401000D03*
X8655000D03*
X8909000D03*
X11239500Y1397000D03*
Y1143000D03*
Y889000D03*
X11493500Y1397000D03*
Y1143000D03*
Y889000D03*
X13017500Y1206500D03*
X13271500D03*
X13017500Y952500D03*
X13271500D03*
Y698500D03*
X11239500Y1905000D03*
X11493500D03*
Y1651000D03*
X13017500Y1460500D03*
X13271500D03*
Y1841500D03*
X13017500D03*
X13271500Y2095500D03*
X13017500D03*
X13271500Y2349500D03*
X13017500D03*
G54D17*
X654000Y1470000D03*
Y1978000D03*
X1162000Y1470000D03*
Y1978000D03*
X1924000Y1470000D03*
Y1978000D03*
X2432000Y1470000D03*
Y1978000D03*
X3702000Y1470000D03*
X3194000D03*
Y1978000D03*
X3702000D03*
X4464000Y1470000D03*
Y1978000D03*
X4972000Y1470000D03*
Y1978000D03*
X5734000Y1470000D03*
Y1978000D03*
X6242000Y1470000D03*
Y1978000D03*
X7512000Y1470000D03*
X7004000D03*
Y1978000D03*
X7512000D03*
X8274000Y1470000D03*
Y1978000D03*
X8782000Y1470000D03*
Y1978000D03*
X9544000Y1470000D03*
X10052000D03*
Y1978000D03*
%LPD*%
G75*
G36*
G01X12537500Y1248910D02*
G02X12554840Y1241720I7181J-7186D01*
G01Y1110440D01*
X12517300Y1072900D01*
X12459880D01*
G02X12451840Y1089280I-7J10160D01*
G03X12470220Y1143000I-69337J53728D01*
G03X12430230Y1216600I-87724J0D01*
G02X12435750Y1235280I5526J8523D01*
G01X12509500D01*
G03X12534050Y1245450I0J34716D01*
G01X12537500Y1248910D01*
G37*
G36*
G01X12490560Y1519470D02*
G02X12507900Y1512280I7181J-7186D01*
G01Y1317500D01*
X12495120Y1304720D01*
X12435750D01*
G02X12430230Y1323400I6J10157D01*
G03Y1470600I-47734J73600D01*
G02X12435750Y1489280I5526J8523D01*
G01X12446000D01*
G03X12470550Y1499450I0J34716D01*
G01X12490560Y1519470D01*
G37*
G54D10*
X908000Y1724000D03*
X2178000D03*
X3448000D03*
X4718000D03*
X5988000D03*
X7258000D03*
X8528000D03*
X9798000D03*
G54D11*
X654000Y1978000D03*
Y1470000D03*
X1162000Y1978000D03*
Y1470000D03*
X1924000Y1978000D03*
Y1470000D03*
X2432000Y1978000D03*
Y1470000D03*
X3702000Y1978000D03*
X3194000D03*
Y1470000D03*
X3702000D03*
X4464000Y1978000D03*
Y1470000D03*
X4972000Y1978000D03*
Y1470000D03*
X5734000Y1978000D03*
Y1470000D03*
X6242000Y1978000D03*
Y1470000D03*
X7512000Y1978000D03*
X7004000D03*
Y1470000D03*
X7512000D03*
X8274000Y1978000D03*
Y1470000D03*
X8782000Y1978000D03*
Y1470000D03*
X9544000Y1978000D03*
Y1470000D03*
X10052000Y1978000D03*
Y1470000D03*
G54D12*
X1289000Y581000D03*
X1035000D03*
X781000D03*
X1289000Y835000D03*
X1035000D03*
X781000D03*
X2051000Y581000D03*
X1797000D03*
X1543000D03*
X2051000Y835000D03*
X1797000D03*
X1543000D03*
X3575000Y581000D03*
X3321000D03*
X3067000D03*
X3575000Y835000D03*
X3321000D03*
X3067000D03*
X4337000Y581000D03*
X4083000D03*
X3829000D03*
X4337000Y835000D03*
X4083000D03*
X3829000D03*
X5861000Y581000D03*
X5607000D03*
X5353000D03*
X5861000Y835000D03*
X5607000D03*
X5353000D03*
X6623000Y581000D03*
X6369000D03*
X6115000D03*
X6623000Y835000D03*
X6369000D03*
X6115000D03*
X8147000Y581000D03*
X7893000D03*
X7639000D03*
X8147000Y835000D03*
X7893000D03*
X7639000D03*
X8909000Y581000D03*
X8655000D03*
X8401000D03*
X8909000Y835000D03*
X8655000D03*
X8401000D03*
X11239500Y635000D03*
Y381000D03*
Y1397000D03*
Y1143000D03*
Y889000D03*
Y2159000D03*
Y1905000D03*
Y1651000D03*
X11493500Y635000D03*
Y381000D03*
Y1397000D03*
Y1143000D03*
Y889000D03*
Y2159000D03*
Y1905000D03*
Y1651000D03*
X12128500Y635000D03*
X12382500D03*
X12128500Y381000D03*
X12382500D03*
X12128500Y1397000D03*
X12382500D03*
X12128500Y1143000D03*
X12382500D03*
X12128500Y889000D03*
X12382500D03*
X12128500Y2159000D03*
X12382500D03*
X12128500Y1905000D03*
X12382500D03*
X12128500Y1651000D03*
X12382500D03*
X13017500Y444500D03*
X13271500D03*
X13017500Y190500D03*
X13271500D03*
X13017500Y1206500D03*
X13271500D03*
X13017500Y952500D03*
X13271500D03*
X13017500Y698500D03*
X13271500D03*
X13017500Y2095500D03*
X13271500D03*
X13017500Y1841500D03*
X13271500D03*
X13017500Y1460500D03*
X13271500D03*
X13017500Y2349500D03*
X13271500D03*
G54D13*
X6223000Y2413000D03*
Y2286000D03*
X8890000Y2159000D03*
X9144000Y571500D03*
X9334500D03*
X9525000D03*
X9715500D03*
X9906000D03*
X10414000Y2032000D03*
X10731500Y1143000D03*
Y1016000D03*
Y889000D03*
Y762000D03*
Y635000D03*
X10604500Y2095500D03*
X10731500Y2159000D03*
G54D14*
G01X534600Y1470000D02*
X654000D01*
G01X534600Y1978000D02*
X654000D01*
G01Y1350600D02*
Y1470000D01*
G01D02*
Y1589400D01*
G01Y1470000D02*
X773400D01*
G01X654000Y1858600D02*
Y1978000D01*
G01D02*
Y2097400D01*
G01Y1978000D02*
X773400D01*
G01X1162000Y1350600D02*
Y1470000D01*
G01D02*
Y1589400D01*
G01X1042600Y1470000D02*
X1162000D01*
G01D02*
X1281400D01*
G01X1162000Y1858600D02*
Y1978000D01*
G01D02*
Y2097400D01*
G01X1042600Y1978000D02*
X1162000D01*
G01D02*
X1281400D01*
G01X1797000Y488200D02*
Y581000D01*
G01D02*
Y673800D01*
G01X1704200Y581000D02*
X1797000D01*
G01D02*
X1889800D01*
G01X1797000Y742200D02*
Y835000D01*
G01D02*
Y927800D01*
G01X1704200Y835000D02*
X1797000D01*
G01D02*
X1889800D01*
G01X1924000Y1858600D02*
Y1978000D01*
G01D02*
Y2097400D01*
G01X1804600Y1978000D02*
X1924000D01*
G01D02*
X2043400D01*
G01X1924000Y1350600D02*
Y1470000D01*
G01D02*
Y1589400D01*
G01X1804600Y1470000D02*
X1924000D01*
G01D02*
X2043400D01*
G01X2432000Y1858600D02*
Y1978000D01*
G01D02*
Y2097400D01*
G01X2312600Y1978000D02*
X2432000D01*
G01D02*
X2551400D01*
G01X2432000Y1350600D02*
Y1470000D01*
G01D02*
Y1589400D01*
G01X2312600Y1470000D02*
X2432000D01*
G01D02*
X2551400D01*
G01X3582600D02*
X3702000D01*
G01X3194000Y1350600D02*
Y1470000D01*
G01D02*
Y1589400D01*
G01X3074600Y1470000D02*
X3194000D01*
G01D02*
X3313400D01*
G01X3582600Y1978000D02*
X3702000D01*
G01X3194000Y1858600D02*
Y1978000D01*
G01D02*
Y2097400D01*
G01X3074600Y1978000D02*
X3194000D01*
G01D02*
X3313400D01*
G01X4083000Y488200D02*
Y581000D01*
G01D02*
Y673800D01*
G01X3990200Y581000D02*
X4083000D01*
G01D02*
X4175800D01*
G01X4083000Y742200D02*
Y835000D01*
G01D02*
Y927800D01*
G01X3990200Y835000D02*
X4083000D01*
G01D02*
X4175800D01*
G01X3702000Y1350600D02*
Y1470000D01*
G01D02*
Y1589400D01*
G01Y1470000D02*
X3821400D01*
G01X3702000Y1858600D02*
Y1978000D01*
G01D02*
Y2097400D01*
G01Y1978000D02*
X3821400D01*
G01X4344600Y1470000D02*
X4464000D01*
G01X4344600Y1978000D02*
X4464000D01*
G01Y1350600D02*
Y1470000D01*
G01D02*
Y1589400D01*
G01Y1470000D02*
X4583400D01*
G01X4464000Y1858600D02*
Y1978000D01*
G01D02*
Y2097400D01*
G01Y1978000D02*
X4583400D01*
G01X4972000Y1350600D02*
Y1470000D01*
G01D02*
Y1589400D01*
G01X4852600Y1470000D02*
X4972000D01*
G01D02*
X5091400D01*
G01X4972000Y1858600D02*
Y1978000D01*
G01D02*
Y2097400D01*
G01X4852600Y1978000D02*
X4972000D01*
G01D02*
X5091400D01*
G01X5734000Y1350600D02*
Y1470000D01*
G01D02*
Y1589400D01*
G01X5614600Y1470000D02*
X5734000D01*
G01D02*
X5853400D01*
G01X5734000Y1858600D02*
Y1978000D01*
G01D02*
Y2097400D01*
G01X5614600Y1978000D02*
X5734000D01*
G01D02*
X5853400D01*
G01X6369000Y488200D02*
Y581000D01*
G01D02*
Y673800D01*
G01X6276200Y581000D02*
X6369000D01*
G01D02*
X6461800D01*
G01X6369000Y742200D02*
Y835000D01*
G01D02*
Y927800D01*
G01X6276200Y835000D02*
X6369000D01*
G01D02*
X6461800D01*
G01X6242000Y1350600D02*
Y1470000D01*
G01D02*
Y1589400D01*
G01X6122600Y1470000D02*
X6242000D01*
G01D02*
X6361400D01*
G01X6242000Y1858600D02*
Y1978000D01*
G01D02*
Y2097400D01*
G01X6122600Y1978000D02*
X6242000D01*
G01D02*
X6361400D01*
G01X7392600Y1470000D02*
X7512000D01*
G01X7004000Y1350600D02*
Y1470000D01*
G01D02*
Y1589400D01*
G01X6884600Y1470000D02*
X7004000D01*
G01D02*
X7123400D01*
G01X7004000Y1858600D02*
Y1978000D01*
G01D02*
Y2097400D01*
G01X6884600Y1978000D02*
X7004000D01*
G01D02*
X7123400D01*
G01X7392600D02*
X7512000D01*
G01X8154600D02*
X8274000D01*
G01X7512000Y1350600D02*
Y1470000D01*
G01D02*
Y1589400D01*
G01Y1470000D02*
X7631400D01*
G01X7512000Y1858600D02*
Y1978000D01*
G01D02*
Y2097400D01*
G01Y1978000D02*
X7631400D01*
G01X8154600Y1470000D02*
X8274000D01*
G01X8655000Y488200D02*
Y581000D01*
G01D02*
Y673800D01*
G01X8562200Y581000D02*
X8655000D01*
G01D02*
X8747800D01*
G01X8655000Y742200D02*
Y835000D01*
G01D02*
Y927800D01*
G01X8562200Y835000D02*
X8655000D01*
G01D02*
X8747800D01*
G01X8274000Y1858600D02*
Y1978000D01*
G01D02*
Y2097400D01*
G01Y1978000D02*
X8393400D01*
G01X8782000Y1858600D02*
Y1978000D01*
G01D02*
Y2097400D01*
G01X8662600Y1978000D02*
X8782000D01*
G01D02*
X8901400D01*
G01X8274000Y1350600D02*
Y1470000D01*
G01D02*
Y1589400D01*
G01Y1470000D02*
X8393400D01*
G01X8782000Y1350600D02*
Y1470000D01*
G01D02*
Y1589400D01*
G01X8662600Y1470000D02*
X8782000D01*
G01D02*
X8901400D01*
G01X9544000Y1350600D02*
Y1470000D01*
G01D02*
Y1589400D01*
G01X9424600Y1470000D02*
X9544000D01*
G01D02*
X9663400D01*
G01X9544000Y1858600D02*
Y1978000D01*
G01D02*
Y2097400D01*
G01X9424600Y1978000D02*
X9544000D01*
G01D02*
X9663400D01*
G01X10052000Y1350600D02*
Y1470000D01*
G01D02*
Y1589400D01*
G01X9932600Y1470000D02*
X10052000D01*
G01D02*
X10171400D01*
G01X10052000Y1858600D02*
Y1978000D01*
G01D02*
Y2097400D01*
G01X9932600Y1978000D02*
X10052000D01*
G01D02*
X10171400D01*
G01X11493500Y542200D02*
Y635000D01*
G01Y381000D02*
Y473800D01*
G01X11400700Y381000D02*
X11493500D01*
G01D02*
X11586300D01*
G01X11493500Y635000D02*
Y727800D01*
G01X11400700Y635000D02*
X11493500D01*
G01D02*
X11586300D01*
G01X11493500Y1304200D02*
Y1397000D01*
G01Y1050200D02*
Y1143000D01*
G01D02*
Y1235800D01*
G01X11400700Y1143000D02*
X11493500D01*
G01D02*
X11586300D01*
G01X11493500Y796200D02*
Y889000D01*
G01D02*
Y981800D01*
G01X11400700Y889000D02*
X11493500D01*
G01D02*
X11586300D01*
G01X11493500Y1397000D02*
Y1489800D01*
G01X11400700Y1397000D02*
X11493500D01*
G01D02*
X11586300D01*
G01X11493500Y1812200D02*
Y1905000D01*
G01D02*
Y1997800D01*
G01X11400700Y1905000D02*
X11493500D01*
G01D02*
X11586300D01*
G01X11493500Y2066200D02*
Y2159000D01*
G01Y1558200D02*
Y1651000D01*
G01D02*
Y1743800D01*
G01X11400700Y1651000D02*
X11493500D01*
G01D02*
X11586300D01*
G01X11400700Y2159000D02*
X11493500D01*
G01D02*
X11586300D01*
G01X12382500Y381000D02*
Y473800D01*
G01X12289700Y381000D02*
X12382500D01*
G01D02*
X12475300D01*
G01X12382500Y542200D02*
Y635000D01*
G01X12289700Y1143000D02*
X12382500D01*
G01D02*
X12475300D01*
G01X12382500Y635000D02*
Y727800D01*
G01X12289700Y635000D02*
X12382500D01*
G01D02*
X12475300D01*
G01X12382500Y889000D02*
Y981800D01*
G01X12289700Y889000D02*
X12382500D01*
G01D02*
X12475300D01*
G01X12289700Y1397000D02*
X12382500D01*
G01D02*
X12475300D01*
G01X12382500Y2066200D02*
Y2159000D01*
G01Y1812200D02*
Y1905000D01*
G01D02*
Y1997800D01*
G01X12289700Y1905000D02*
X12382500D01*
G01Y1651000D02*
Y1743800D01*
G01X12289700Y1651000D02*
X12382500D01*
G01Y2159000D02*
Y2251800D01*
G01X12289700Y2159000D02*
X12382500D01*
G01X13017500Y1113700D02*
Y1206500D01*
G01D02*
Y1299300D01*
G01X12924700Y1206500D02*
X13017500D01*
G01D02*
X13110300D01*
G01X13271500Y1113700D02*
Y1206500D01*
G01D02*
Y1299300D01*
G01X13178700Y1206500D02*
X13271500D01*
G01D02*
X13364300D01*
G01X13271500Y1748700D02*
Y1841500D01*
G01D02*
Y1934300D01*
G01X13178700Y1841500D02*
X13271500D01*
G01D02*
X13364300D01*
G01X13017500Y1748700D02*
Y1841500D01*
G01D02*
Y1934300D01*
G01X12924700Y1841500D02*
X13017500D01*
G01D02*
X13110300D01*
G54D15*
G01X1035000Y581000D02*
X835000Y381000D01*
X508000D01*
X381000Y508000D01*
Y2032000D01*
X571500Y2222500D01*
X3302000D01*
X3448000Y2076500D01*
Y1724000D01*
G01X3575000Y835000D02*
X3683000Y727000D01*
Y317500D01*
X3810000Y190500D01*
X4889500D01*
X5016500Y317500D01*
Y1016000D01*
X5270500Y1270000D01*
Y1968500D01*
X5461000Y2159000D01*
X8890000D01*
G01X6223000Y2286000D02*
X4381500D01*
X4254500Y2159000D01*
Y1206500D01*
X4572000Y889000D01*
Y508000D01*
X4430530Y366530D01*
X4043470D01*
X3829000Y581000D01*
G01Y835000D02*
X4000500Y1006500D01*
Y2095500D01*
X4318000Y2413000D01*
X6223000D01*
G01X12128500Y635000D02*
X12277680Y784180D01*
X12531680D01*
X12636500Y889000D01*
Y2358170D01*
X12518170Y2476500D01*
X9444150D01*
X9052860Y2085210D01*
Y1386710D01*
X8936150Y1270000D01*
X5588000D01*
X5207000Y889000D01*
Y727000D01*
X5353000Y581000D01*
G01X12128500Y1143000D02*
X12255500Y1270000D01*
X12509500D01*
X12542620Y1303120D01*
Y2319270D01*
X12479270Y2382620D01*
X9483050D01*
X9146740Y2046310D01*
Y1347810D01*
X8958490Y1159560D01*
X5743950D01*
X5502180Y917790D01*
Y685820D01*
X5607000Y581000D01*
G01X5861000Y835000D02*
Y939820D01*
X5986860Y1065680D01*
X8997390D01*
X9240620Y1308910D01*
Y2007410D01*
X9521950Y2288740D01*
X11998760D01*
X12128500Y2159000D01*
G01X5353000Y835000D02*
Y939820D01*
X5619680Y1206500D01*
X8939040D01*
X9099800Y1367260D01*
Y2065760D01*
X9463600Y2429560D01*
X12498720D01*
X12589560Y2338720D01*
Y1096060D01*
X12531680Y1038180D01*
X12277680D01*
X12128500Y889000D01*
G01X5607000Y835000D02*
Y939820D01*
X5779800Y1112620D01*
X8977940D01*
X9193680Y1328360D01*
Y2026860D01*
X9502500Y2335680D01*
X12459820D01*
X12495680Y2299820D01*
Y1573680D01*
X12446000Y1524000D01*
X12255500D01*
X12128500Y1397000D01*
G01X10731500Y2159000D02*
X10648700Y2241800D01*
X9541400D01*
X9287560Y1987960D01*
Y1289460D01*
X9016840Y1018740D01*
X7556340D01*
X6918600Y381000D01*
X6315000D01*
X6115000Y581000D01*
G01X10604500Y2095500D02*
X10505140Y2194860D01*
X9560850D01*
X9334500Y1968510D01*
Y1270010D01*
X9036290Y971800D01*
X7575790D01*
X6938050Y334060D01*
X6206440D01*
X5969000Y571500D01*
Y689000D01*
X6115000Y835000D01*
G01X13271500Y190500D02*
X13144500Y63500D01*
X8156500D01*
X7639000Y581000D01*
G01X13017500Y190500D02*
X12937440Y110440D01*
X8208060D01*
X7743820Y574680D01*
Y730180D01*
X7639000Y835000D01*
G01X7893000Y581000D02*
X8316620Y157380D01*
X12793870D01*
X12931810Y295320D01*
X13122320D01*
X13271500Y444500D01*
G01X7893000Y835000D02*
X7997820Y730180D01*
Y574680D01*
X8249240Y323260D01*
Y320370D01*
X8365290Y204320D01*
X12774420D01*
X12912360Y342260D01*
X12915260D01*
X13017500Y444500D01*
G01Y698500D02*
X12570260Y251260D01*
X8384740D01*
X8296180Y339820D01*
Y685820D01*
X8147000Y835000D01*
G01X10731500Y1143000D02*
X9715500D01*
X9144000Y571500D01*
G01X10731500Y1016000D02*
X9779000D01*
X9334500Y571500D01*
G01X10731500Y889000D02*
X9842500D01*
X9525000Y571500D01*
G01X10731500Y762000D02*
X9906000D01*
X9715500Y571500D01*
G01X10731500Y635000D02*
X9969500D01*
X9906000Y571500D01*
G01X11239500Y1651000D02*
X10795000D01*
X10414000Y2032000D01*
G01X12128500Y381000D02*
X11684000Y825500D01*
Y1714500D01*
X12128500Y2159000D01*
G01Y635000D02*
X11811000Y952500D01*
Y1587500D01*
X12128500Y1905000D01*
G01Y889000D02*
X11938000Y1079500D01*
Y1460500D01*
X12128500Y1651000D01*
M02*
